<?xml version="1.0" encoding="UTF-8"?>
<svg id="OBJECTS" xmlns="http://www.w3.org/2000/svg" viewBox="0 0 244.13 239.19">
  <defs>
    <style>
      .cls-1 {
        fill: #11113d;
      }
    </style>
  </defs>
  <g>
    <polygon class="cls-1" points="146.76 98.17 134.66 89.48 122.9 89.48 135 98.17 146.76 98.17"/>
    <polygon class="cls-1" points="154.19 111.95 165.95 111.95 153.84 103.25 142.08 103.25 154.19 111.95"/>
    <polygon class="cls-1" points="173.37 125.73 185.14 125.73 173.03 117.03 161.26 117.03 173.37 125.73"/>
    <polygon class="cls-1" points="192.2 130.8 180.44 130.8 192.55 139.5 204.32 139.5 192.2 130.8"/>
    <path class="cls-1" d="m77.63,115.64v-45.17l34.71-27.59v20.43h-2.25v4.95h2.63v2.85c-2.01.42-3.53,2.21-3.53,4.34,0,2.45,1.99,4.44,4.44,4.44s4.44-1.99,4.44-4.44h-1.81c0,1.45-1.18,2.63-2.63,2.63s-2.63-1.18-2.63-2.63,1.18-2.63,2.63-2.63h.9v-4.56h2.63v-4.95h-2.25v-22.46l5.25-4.17-.05-6.18-42.46,33.75v-9.38l-2.88,2.18v9.49l-2.39,1.9v-9.59l-6.97,5.26v9.87l-4.54,3.61v-10.05l-21.03,15.87v25.58l21.03-16.72v-8.45l4.54-3.61v44.23l-20.98,15.06h14.24l55.42-39.79,55.42,39.79h14.24l-69.65-50.02-36.43,26.16Zm-26.78-21.01l-6.93,5.51v-8.43l6.93-5.23v8.15Zm21.51-19.97l2.39-1.9v44.95l-2.39,1.72v-44.76Z"/>
    <rect class="cls-1" x="105.22" y="115.88" width="7.28" height="9.75"/>
    <rect class="cls-1" x="115.63" y="115.88" width="7.28" height="9.75"/>
    <rect class="cls-1" x="105.22" y="129.5" width="7.28" height="9.75"/>
    <rect class="cls-1" x="115.63" y="129.5" width="7.28" height="9.75"/>
    <polygon class="cls-1" points="47.39 108.99 60.84 108.99 60.84 98.29 47.39 108.99"/>
  </g>
  <g>
    <path class="cls-1" d="m45.25,141.72h13.25l8.15,13.36,8.15-13.36h13.25v38.01h-12.65v-18.84l-8.77,13.52h-.22l-8.77-13.52v18.84h-12.38v-38.01Z"/>
    <path class="cls-1" d="m91.57,167.25h12.6v12.49h-12.6v-12.49Z"/>
    <path class="cls-1" d="m126.55,180.55c-2.64,0-5.15-.47-7.52-1.41-2.37-.94-4.46-2.28-6.27-4.02-1.81-1.74-3.25-3.82-4.32-6.25-1.07-2.42-1.6-5.1-1.6-8.04v-.11c0-2.82.52-5.45,1.55-7.87,1.03-2.42,2.46-4.52,4.29-6.3,1.83-1.77,3.97-3.16,6.44-4.15,2.46-1,5.1-1.49,7.93-1.49,2.1,0,4.03.24,5.78.73,1.76.49,3.35,1.17,4.78,2.04,1.43.87,2.7,1.91,3.8,3.12,1.1,1.21,2.05,2.54,2.85,3.99l-10.48,6.14c-.72-1.38-1.62-2.49-2.69-3.34-1.07-.85-2.47-1.28-4.21-1.28-1.09,0-2.06.22-2.93.65-.87.43-1.61,1.03-2.23,1.79-.62.76-1.1,1.65-1.44,2.66-.34,1.01-.52,2.08-.52,3.2v.11c0,1.23.17,2.36.52,3.39.34,1.03.83,1.92,1.47,2.66.63.74,1.39,1.32,2.25,1.74.87.42,1.83.62,2.88.62,1.81,0,3.26-.44,4.34-1.33,1.09-.89,2.03-2.04,2.82-3.45l10.48,5.92c-.8,1.41-1.74,2.74-2.82,3.99s-2.36,2.33-3.83,3.26c-1.47.92-3.13,1.66-5,2.2-1.87.54-3.97.81-6.33.81Z"/>
    <path class="cls-1" d="m146.15,167.25h12.6v12.49h-12.6v-12.49Z"/>
    <path class="cls-1" d="m182.75,180.55c-2.97,0-5.75-.47-8.34-1.41-2.59-.94-4.85-2.28-6.79-4.02-1.94-1.74-3.46-3.82-4.56-6.25-1.1-2.42-1.66-5.1-1.66-8.04v-.11c0-2.82.52-5.45,1.58-7.87,1.05-2.42,2.52-4.52,4.4-6.3,1.88-1.77,4.1-3.16,6.65-4.15,2.55-1,5.33-1.49,8.34-1.49,3.29,0,6.25.51,8.88,1.52,2.62,1.01,4.97,2.43,7.03,4.24l-7.11,8.58c-1.27-1.05-2.59-1.86-3.96-2.44-1.38-.58-2.86-.87-4.45-.87-1.23,0-2.37.23-3.42.68-1.05.45-1.96,1.08-2.72,1.87-.76.8-1.35,1.74-1.76,2.82-.42,1.09-.62,2.28-.62,3.58v.11c0,1.34.23,2.57.68,3.69.45,1.12,1.08,2.08,1.87,2.88.8.8,1.75,1.41,2.85,1.85,1.1.43,2.33.65,3.67.65,1.09,0,1.96-.07,2.61-.22.65-.14,1.23-.36,1.74-.65v-3.8h-6.52v-8.09h18.41v17.55c-2.06,1.7-4.51,3.07-7.33,4.12-2.82,1.05-5.97,1.57-9.45,1.57Z"/>
  </g>
  <g>
    <path class="cls-1" d="m43.6,198.91v4.72c0,.14.02.27.07.38s.1.2.18.28c.07.07.12.1.15.1h7.25s.06-.03.13-.1c.07-.07.13-.17.18-.28.04-.11.07-.23.07-.38v-7.05h3.53v7.05c0,.47-.09.91-.28,1.33s-.43.77-.74,1.08c-.36.37-.79.65-1.29.86-.5.21-1.04.31-1.62.31h-7.23c-.59,0-1.14-.1-1.64-.31-.5-.21-.93-.49-1.29-.86-.31-.31-.55-.67-.74-1.08s-.28-.67-.28-.76h-.01v-5.28h3.54Zm.1-4.54c0-.25.05-.48.14-.69s.22-.4.38-.56c.16-.16.34-.29.54-.38s.43-.13.66-.13.45.04.66.13c.21.09.4.22.56.38s.29.35.38.56.13.44.13.69-.04.47-.13.68c-.09.21-.22.39-.38.55-.16.16-.35.28-.56.37-.21.09-.43.13-.66.13s-.45-.04-.66-.13-.39-.21-.54-.37-.28-.34-.38-.55c-.09-.21-.14-.43-.14-.68Zm3.8,0c0-.25.05-.48.15-.69s.23-.4.38-.56.34-.29.55-.38c.21-.09.44-.13.69-.13.22,0,.44.04.65.13s.39.22.54.38c.15.16.28.35.37.56s.14.44.14.69-.05.47-.14.68c-.09.21-.21.39-.37.55-.15.16-.33.28-.54.37s-.42.13-.65.13c-.25,0-.48-.04-.69-.13-.21-.09-.39-.21-.55-.37-.16-.16-.29-.34-.38-.55-.1-.21-.15-.43-.15-.68Z"/>
    <path class="cls-1" d="m62.63,192.17v12.21h2.21s.06-.03.13-.1c.07-.08.14-.18.19-.29s.07-.23.07-.37v-11.45h3.53v11.45c0,.47-.09.91-.28,1.33s-.43.77-.75,1.08c-.37.37-.8.65-1.29.86-.49.21-1.03.31-1.62.31h-7.43v-2.82h1.7v-12.21h3.53Z"/>
    <path class="cls-1" d="m80.6,208.4c-.15.52-.35.99-.61,1.4-.25.41-.55.76-.89,1.05-.34.29-.71.54-1.12.73-.4.19-.82.34-1.25.45s-.86.18-1.3.23c-.44.05-.89.08-1.34.08-.45,0-1.09.01-1.92.01v-2.81c.73,0,1.27,0,1.6,0,.33,0,.64-.02.94-.05.3-.03.57-.07.8-.12.24-.05.44-.11.62-.2.15-.08.29-.17.42-.3.13-.12.25-.28.36-.48.11-.19.2-.44.27-.73.07-.29.11-.45.12-.46-.33,0-.79-.03-1.37-.1-.58-.07-1.1-.16-1.57-.29-.46-.13-.88-.29-1.25-.5s-.69-.45-.96-.73c-.3-.31-.53-.65-.69-1.01-.16-.36-.28-.74-.35-1.14-.07-.4-.11-.83-.12-1.29v-1.35c0-.6.08-1.15.23-1.65.15-.5.34-.95.58-1.35.24-.4.53-.75.86-1.05.33-.3.68-.54,1.06-.73.67-.33,1.4-.49,2.17-.49h.1c.79,0,1.54.18,2.25.53.36.19.7.43,1.03.71.33.29.6.63.84,1.01.23.39.42.82.55,1.29.13.48.2.99.2,1.55v5.19c-.04,1.2-.13,2.06-.28,2.58Zm-3.26-7.78c0-.61-.1-1.1-.3-1.46s-.43-.6-.7-.74c-.13-.06-.26-.09-.37-.1-.09,0-.2.03-.34.09-.28.14-.52.4-.74.79-.21.38-.33.93-.34,1.63,0,.27-.01.52-.01.75,0,.11,0,.23.01.34,0,.34.02.63.05.89.03.25.08.47.14.64s.14.3.24.4c.16.17.46.3.91.4.45.1.93.16,1.45.16v-3.79Z"/>
    <path class="cls-1" d="m86.66,192.17v11.45c0,.14.02.27.07.38s.1.2.18.26c.08.07.13.11.13.11h2.16v2.82h-2.15c-.58,0-1.12-.1-1.62-.31-.5-.21-.93-.49-1.29-.86-.31-.31-.55-.67-.74-1.08s-.28-.85-.28-1.33v-11.45h3.53Z"/>
    <path class="cls-1" d="m97.51,196.03c.37.19.73.43,1.06.73.33.3.62.64.86,1.05.24.4.44.85.58,1.35.14.5.22,1.05.24,1.65,0,.45.01.87.01,1.27,0,.42-.03.81-.08,1.19-.05.37-.13.66-.24.87-.04.07-.06.13-.06.17,0,.07.04.1.11.1.03,0,.06,0,.09-.01h1.79v2.82h-13.34v-2.82h1.83s.04.01.06.01c.05,0,.08-.03.08-.1,0-.04-.01-.09-.03-.17-.08-.21-.14-.5-.19-.87-.05-.37-.08-.76-.08-1.17,0-.07-.01-.16-.01-.26,0-.33,0-.67.02-1.02,0-.59.08-1.14.23-1.64.15-.5.34-.95.58-1.35.24-.4.53-.75.86-1.05.33-.3.68-.54,1.06-.73.34-.16.71-.29,1.1-.37s.78-.12,1.18-.12.79.04,1.18.12.76.2,1.11.38Zm-6.23-3.25c0-.25.05-.48.14-.69.09-.21.22-.4.38-.56s.34-.29.54-.38c.21-.09.43-.13.66-.13s.45.04.66.13c.21.09.4.22.56.38s.29.35.38.56c.09.21.14.44.14.69s-.05.47-.14.68-.22.39-.38.54-.35.28-.56.37c-.21.09-.43.13-.66.13s-.45-.04-.66-.13-.39-.21-.54-.37-.28-.34-.38-.54c-.09-.21-.14-.43-.14-.68Zm5.43,8.06c0-.36-.04-.67-.11-.94-.06-.27-.15-.5-.25-.7-.1-.2-.22-.36-.34-.48s-.26-.22-.4-.3c-.03-.01-.08-.03-.16-.04-.08-.01-.15-.03-.23-.03h-.03c-.06,0-.12,0-.19.02-.07.02-.13.03-.18.06-.14.08-.26.17-.39.3-.12.12-.24.29-.34.48-.1.2-.19.43-.25.7-.06.27-.1.58-.11.94,0,.27-.01.52-.01.75,0,.11,0,.23.01.34,0,.34.02.63.05.89.03.25.08.47.14.64s.14.31.25.42c.07.08.14.15.2.21.06.06.12.1.19.14s.15.07.25.1c.1.03.24.04.41.04s.32-.01.42-.04c.1-.03.18-.06.25-.1.06-.04.13-.09.19-.15s.13-.13.2-.21c.1-.1.19-.24.25-.41s.11-.38.14-.64c.03-.26.05-.55.06-.87v-.35c0-.23,0-.48-.01-.75Zm-1.63-8.06c0-.25.05-.48.15-.69.1-.21.23-.4.38-.56s.34-.29.55-.38c.21-.09.44-.13.69-.13.22,0,.44.04.65.13.21.09.39.22.54.38.15.16.28.35.37.56.09.21.14.44.14.69s-.04.47-.14.68c-.09.21-.21.39-.37.54-.15.16-.33.28-.54.37-.21.09-.42.13-.65.13-.25,0-.48-.04-.69-.13-.21-.09-.39-.21-.55-.37s-.28-.34-.38-.54c-.1-.21-.15-.43-.15-.68Z"/>
    <path class="cls-1" d="m113.7,207.2h-2.43s-.09.07-.23.16c-.49.42-1.06.69-1.7.8-.27.05-.54.08-.82.08-.35,0-.69-.04-1.01-.11h-.04l-3.47-.92h-2.81v-2.82h1.33v-3.75c0-.55.07-1.07.2-1.55.13-.48.32-.91.55-1.29.23-.39.51-.72.84-1.01.33-.29.67-.53,1.04-.71.35-.17.72-.3,1.09-.39.37-.09.76-.13,1.16-.13h.1c.35,0,.7.04,1.06.11.38.08.74.21,1.1.38.37.19.73.43,1.06.73.33.3.62.64.86,1.05.24.4.44.85.58,1.35.14.5.22,1.05.24,1.65v3.59h1.31v2.82Zm-7.63-2.42l1.87.49c.19.07.34.1.47.1.02,0,.03,0,.06-.01.1,0,.18-.03.23-.07s.09-.12.12-.23.05-.25.05-.4v-3.82c-.02-.36-.05-.67-.12-.94-.06-.27-.15-.5-.25-.7-.1-.2-.22-.36-.34-.48s-.25-.22-.38-.29c-.13-.06-.25-.09-.34-.09-.12,0-.25.04-.39.1-.26.14-.49.38-.69.74s-.29.84-.29,1.46v4.16Z"/>
    <path class="cls-1" d="m119.01,192.15v11.48c0,.11,0,.18-.01.2,0,.04.03.11.08.2.04.09.1.17.17.25.07.07.12.1.15.1h2.19v2.82h-2.18c-.49,0-.94-.07-1.36-.21-.42-.14-.69-.25-.81-.33-.1.08-.37.19-.79.33s-.88.21-1.37.21h-2.05v-2.82h2.06s.07-.03.15-.1c.13-.14.21-.31.24-.52v-11.61h3.54Z"/>
    <path class="cls-1" d="m127.18,192.17v11.45c0,.47-.09.91-.28,1.33-.18.41-.43.77-.74,1.08-.36.37-.79.65-1.29.86-.5.21-1.04.31-1.62.31h-2.35v-2.82h2.36s.06-.03.14-.1c.07-.07.13-.17.18-.28s.07-.23.07-.38v-11.45h3.53Z"/>
    <path class="cls-1" d="m145.01,202.24c0,.1,0,.19,0,.29,0,.09,0,.18-.02.25,0,.21-.01.39-.01.55,0,.37.02.59.06.66.05.11.12.21.19.28.04.04.09.06.12.08.02.02.32.02.89.02h.82v2.82h-1.67c-.55,0-1.07-.09-1.54-.28s-.76-.33-.88-.43c-.05.04-.25.15-.58.31-.7.35-1.44.53-2.24.53h-.1c-.35,0-.7-.04-1.06-.11-.37-.08-.74-.21-1.1-.38-.37-.19-.73-.43-1.06-.73-.33-.3-.62-.64-.86-1.04-.24-.4-.44-.85-.58-1.35-.15-.5-.22-1.05-.23-1.65,0-.32-.01-.63-.01-.93v-.43c0-.46.05-.89.12-1.29.07-.4.19-.78.35-1.14s.39-.7.69-1.01c.31-.31.69-.58,1.12-.8.43-.22.93-.4,1.5-.53.57-.13,1.22-.22,1.96-.26.42-.02.87-.03,1.35-.03.35,0,.72,0,1.11.02l1.67.07v6.51Zm-8.33-9.55c0-.25.05-.48.14-.69.09-.21.22-.4.38-.56.16-.16.34-.29.55-.38.21-.09.42-.13.66-.13s.45.04.66.13.4.22.56.38c.16.16.29.35.38.56.09.21.13.44.13.69s-.04.47-.13.68-.22.39-.38.54c-.16.16-.35.28-.56.37-.21.09-.43.13-.66.13s-.45-.04-.66-.13c-.21-.09-.39-.21-.55-.37s-.28-.34-.38-.54-.14-.43-.14-.68Zm4.79,8.5v-2.73c-.52,0-1,.06-1.46.17-.45.1-.75.24-.9.39-.1.1-.18.23-.24.4-.06.17-.11.38-.14.64s-.05.55-.05.89c0,.11-.01.23-.01.34,0,.23,0,.48.01.75,0,.36.04.67.11.94.06.27.15.5.25.7.1.2.22.36.34.48s.25.22.38.29c.14.06.25.09.34.09.11,0,.24-.04.38-.1.22-.12.43-.32.61-.61.18-.29.3-.67.35-1.15v-1.48h.02Zm-.99-8.5c0-.25.05-.48.15-.69.1-.21.22-.4.38-.56.16-.16.34-.29.55-.38s.44-.13.69-.13c.23,0,.44.04.65.13s.39.22.54.38c.15.16.28.35.37.56.09.21.13.44.13.69s-.04.47-.13.68-.21.39-.37.54c-.15.16-.33.28-.54.37-.21.09-.42.13-.65.13-.25,0-.48-.04-.69-.13-.21-.09-.39-.21-.55-.37-.16-.16-.28-.34-.38-.54-.1-.21-.15-.43-.15-.68Z"/>
    <path class="cls-1" d="m145.7,210.22c0-.25.05-.48.14-.69.09-.21.22-.4.38-.56s.34-.29.55-.38c.21-.09.42-.13.66-.13s.45.04.66.13.4.22.56.38c.16.16.29.35.38.56.09.21.13.44.13.69s-.04.47-.13.68-.22.39-.38.54c-.16.16-.35.28-.56.37s-.43.13-.66.13-.45-.04-.66-.13c-.21-.09-.39-.21-.55-.37-.16-.16-.28-.34-.38-.54s-.14-.43-.14-.68Zm8.21-13.67v7.07c0,.47-.09.91-.28,1.33s-.43.77-.75,1.08c-.37.37-.8.65-1.29.86s-1.03.31-1.62.31h-3.5v-2.82h3.51c.14-.04.24-.14.3-.3.05-.14.08-.31.08-.49v-7.02h3.54Zm-4.41,13.67c0-.25.05-.48.15-.69.1-.21.22-.4.38-.56.16-.16.34-.29.55-.38s.44-.13.69-.13c.23,0,.44.04.65.13s.39.22.54.38c.15.16.28.35.37.56.09.21.13.44.13.69s-.04.47-.13.68-.21.39-.37.54c-.15.16-.33.28-.54.37s-.42.13-.65.13c-.25,0-.48-.04-.69-.13s-.39-.21-.55-.37-.28-.34-.38-.54c-.1-.21-.15-.43-.15-.68Z"/>
    <path class="cls-1" d="m161.62,196.56v7.82h1.79v2.82h-1.82c-.02.3-.1.71-.25,1.23s-.35.98-.61,1.39c-.25.4-.55.75-.89,1.04s-.71.53-1.12.73c-.4.19-.82.34-1.25.45s-.86.18-1.3.23c-.44.05-.89.08-1.34.08-.45,0-1.09.01-1.91.01v-2.81c.73,0,1.27,0,1.6,0,.33,0,.64-.02.93-.05.29-.03.56-.07.8-.12.24-.05.45-.11.63-.2.16-.08.3-.18.44-.3.13-.13.25-.29.36-.49.1-.2.19-.45.26-.75.07-.3.12-.66.14-1.07v-10h3.54Z"/>
    <path class="cls-1" d="m178.79,204.38h2.07v2.82h-18.13v-2.82h2.19v-7.85h3.53v2.69c.32-1.03.81-1.83,1.46-2.38.65-.55,1.46-.93,2.43-1.14.16,0,.31-.01.46-.01.34,0,.69.02,1.05.06.49.06.97.17,1.44.34.49.17.96.38,1.38.66s.8.61,1.12,1c.32.39.57.84.76,1.35.19.51.29,1.07.31,1.7v.21s0,.09.01.15v2.47c0,.26-.03.51-.08.75Zm-10.34,0h6.51s.06-.03.14-.1c.07-.07.13-.17.18-.28s.07-.23.07-.38v-2.27c0-.07,0-.16,0-.24,0-.09,0-.17,0-.26-.02-.31-.06-.59-.13-.84-.08-.24-.18-.45-.3-.63-.13-.18-.28-.32-.45-.44s-.36-.21-.56-.29c-.19-.06-.39-.1-.61-.12-.15-.02-.3-.03-.45-.03-.08,0-.15,0-.24.01-1.15.06-2.12.51-2.91,1.34-.78.84-1.19,1.79-1.23,2.86v1.66Z"/>
    <path class="cls-1" d="m192.7,207.2h-2.43s-.09.07-.23.16c-.49.42-1.06.69-1.7.8-.27.05-.54.08-.82.08-.35,0-.69-.04-1.01-.11h-.04l-3.47-.92h-2.81v-2.82h1.33v-3.75c0-.55.07-1.07.2-1.55.13-.48.32-.91.55-1.29.23-.39.51-.72.84-1.01.33-.29.67-.53,1.04-.71.35-.17.72-.3,1.09-.39.37-.09.76-.13,1.16-.13h.1c.35,0,.7.04,1.06.11.38.08.74.21,1.1.38.37.19.73.43,1.06.73.33.3.62.64.86,1.05.24.4.44.85.58,1.35.14.5.22,1.05.24,1.65v3.59h1.31v2.82Zm-7.63-2.42l1.87.49c.19.07.34.1.47.1.02,0,.03,0,.06-.01.1,0,.18-.03.23-.07s.09-.12.12-.23.05-.25.05-.4v-3.82c-.02-.36-.05-.67-.12-.94-.06-.27-.15-.5-.25-.7-.1-.2-.22-.36-.34-.48s-.25-.22-.38-.29c-.13-.06-.25-.09-.34-.09-.12,0-.25.04-.39.1-.26.14-.49.38-.69.74s-.29.84-.29,1.46v4.16Z"/>
    <path class="cls-1" d="m198.29,192.17v11.45c0,.47-.09.91-.28,1.33-.18.41-.43.77-.74,1.08-.36.37-.79.65-1.29.86-.5.21-1.04.31-1.62.31h-2.35v-2.82h2.36s.06-.03.14-.1c.07-.07.13-.17.18-.28s.07-.23.07-.38v-11.45h3.53Z"/>
    <path class="cls-1" d="m204.07,192.17v14.9h-3.53v-14.9h3.53Z"/>
  </g>
</svg>