<?xml version="1.0" encoding="UTF-8"?>
<svg id="OBJECTS" xmlns="http://www.w3.org/2000/svg" viewBox="0 0 491.98 500">
  <defs>
    <style>
      .cls-1 {
        fill: #fff;
      }

      .cls-2 {
        fill: #ffc736;
      }
    </style>
  </defs>
  <g>
    <polygon class="cls-2" points="286.97 227.38 266.89 212.96 247.38 212.96 267.46 227.38 286.97 227.38"/>
    <polygon class="cls-2" points="299.3 250.24 318.81 250.24 298.71 235.81 279.2 235.81 299.3 250.24"/>
    <polygon class="cls-2" points="331.13 273.1 350.65 273.1 330.55 258.67 311.03 258.67 331.13 273.1"/>
    <polygon class="cls-2" points="362.37 281.52 342.86 281.52 362.95 295.95 382.47 295.95 362.37 281.52"/>
    <path class="cls-2" d="m172.26,256.37v-74.95l57.6-45.78v33.9h-3.74v8.21h4.36v4.72c-3.34.69-5.86,3.66-5.86,7.21,0,4.06,3.3,7.36,7.36,7.36s7.36-3.3,7.36-7.36h-3c0,2.4-1.96,4.36-4.36,4.36s-4.36-1.96-4.36-4.36,1.96-4.36,4.36-4.36h1.5v-7.57h4.36v-8.21h-3.74v-37.27l8.71-6.92-.09-10.26-70.46,56.01v-15.56l-4.78,3.61v15.75l-3.97,3.16v-15.91l-11.57,8.73v16.38l-7.54,5.99v-16.68l-34.89,26.33v42.44l34.89-27.74v-14.02l7.54-5.99v73.39l-34.81,25h23.62l91.96-66.03,91.96,66.03h23.62l-115.58-83-60.45,43.41Zm-44.44-34.87l-11.5,9.14v-13.98l11.5-8.68v13.52Zm35.69-33.13l3.97-3.16v74.59l-3.97,2.85v-74.28Z"/>
    <rect class="cls-2" x="218.04" y="256.77" width="12.08" height="16.18"/>
    <rect class="cls-2" x="235.3" y="256.77" width="12.08" height="16.18"/>
    <rect class="cls-2" x="218.04" y="279.36" width="12.08" height="16.18"/>
    <rect class="cls-2" x="235.3" y="279.36" width="12.08" height="16.18"/>
    <polygon class="cls-2" points="122.07 245.32 144.4 245.32 144.4 227.57 122.07 245.32"/>
  </g>
  <g>
    <path class="cls-1" d="m123.06,301.72h21.03l12.93,21.21,12.93-21.21h21.03v60.34h-20.09v-29.91l-13.92,21.46h-.35l-13.92-21.46v29.91h-19.65v-60.34Z"/>
    <path class="cls-1" d="m196.59,342.24h20v19.83h-20v-19.83Z"/>
    <path class="cls-1" d="m252.1,363.36c-4.2,0-8.18-.75-11.94-2.24-3.76-1.49-7.08-3.62-9.96-6.38-2.87-2.76-5.16-6.06-6.85-9.91-1.7-3.85-2.54-8.1-2.54-12.76v-.17c0-4.48.82-8.65,2.46-12.5,1.64-3.85,3.91-7.18,6.81-10,2.9-2.82,6.31-5.01,10.22-6.59,3.91-1.58,8.1-2.37,12.59-2.37,3.33,0,6.39.39,9.18,1.16,2.79.78,5.31,1.85,7.59,3.23,2.27,1.38,4.28,3.03,6.03,4.96,1.75,1.93,3.26,4.04,4.53,6.34l-16.64,9.74c-1.15-2.18-2.57-3.95-4.27-5.3-1.7-1.35-3.92-2.03-6.68-2.03-1.72,0-3.28.34-4.66,1.03s-2.56,1.64-3.53,2.84c-.98,1.21-1.74,2.62-2.28,4.22-.55,1.61-.82,3.31-.82,5.09v.17c0,1.95.27,3.75.82,5.39.55,1.64,1.32,3.05,2.33,4.22,1,1.18,2.2,2.1,3.58,2.76,1.38.66,2.9.99,4.57.99,2.87,0,5.17-.7,6.9-2.11,1.72-1.41,3.22-3.23,4.48-5.47l16.64,9.4c-1.26,2.24-2.76,4.35-4.48,6.34-1.72,1.98-3.75,3.71-6.08,5.17-2.33,1.47-4.97,2.63-7.93,3.49-2.96.86-6.31,1.29-10.04,1.29Z"/>
    <path class="cls-1" d="m283.22,342.24h20v19.83h-20v-19.83Z"/>
    <path class="cls-1" d="m341.32,363.36c-4.71,0-9.12-.75-13.23-2.24-4.11-1.49-7.7-3.62-10.78-6.38-3.07-2.76-5.49-6.06-7.24-9.91-1.75-3.85-2.63-8.1-2.63-12.76v-.17c0-4.48.83-8.65,2.5-12.5,1.67-3.85,3.99-7.18,6.98-10,2.99-2.82,6.51-5.01,10.56-6.59,4.05-1.58,8.46-2.37,13.23-2.37,5.23,0,9.93.81,14.09,2.41,4.17,1.61,7.89,3.85,11.16,6.72l-11.29,13.62c-2.01-1.67-4.11-2.96-6.29-3.88-2.18-.92-4.54-1.38-7.07-1.38-1.95,0-3.76.36-5.43,1.08-1.67.72-3.1,1.71-4.31,2.97-1.21,1.26-2.14,2.76-2.8,4.48-.66,1.72-.99,3.62-.99,5.69v.17c0,2.13.36,4.08,1.08,5.86.72,1.78,1.71,3.3,2.97,4.57,1.26,1.26,2.77,2.24,4.53,2.93,1.75.69,3.69,1.04,5.82,1.04,1.72,0,3.1-.12,4.14-.34,1.03-.23,1.95-.57,2.76-1.04v-6.03h-10.34v-12.84h29.22v27.87c-3.28,2.69-7.15,4.87-11.64,6.54-4.48,1.66-9.48,2.49-15,2.49Z"/>
  </g>
  <g>
    <path class="cls-1" d="m121.44,392.49v7.49c0,.23.04.42.11.6s.17.32.29.44c.12.11.2.16.23.16h11.51s.09-.05.21-.16c.12-.12.21-.26.29-.44s.11-.37.11-.6v-11.19h5.6v11.19c0,.75-.15,1.45-.44,2.11-.29.65-.68,1.22-1.17,1.71-.57.58-1.25,1.04-2.04,1.37s-1.65.49-2.58.49h-11.47c-.94,0-1.81-.16-2.6-.49s-1.47-.78-2.04-1.37c-.49-.49-.88-1.06-1.17-1.71-.29-.65-.44-1.06-.44-1.21h-.02v-8.38h5.62Zm.16-7.21c0-.39.07-.76.22-1.1.15-.34.35-.64.6-.89.25-.26.54-.46.87-.6s.67-.21,1.04-.21.72.07,1.05.21.63.34.88.6.46.55.6.89c.14.34.21.71.21,1.1s-.07.75-.21,1.08-.34.62-.6.87c-.26.25-.55.45-.88.59s-.68.21-1.05.21-.72-.07-1.04-.21-.62-.34-.87-.59c-.25-.25-.45-.54-.6-.87-.15-.33-.22-.69-.22-1.08Zm6.03,0c0-.39.08-.76.23-1.1.15-.34.36-.64.61-.89.25-.26.54-.46.87-.6s.7-.21,1.09-.21c.36,0,.7.07,1.03.21.33.14.61.34.86.6.24.26.44.55.58.89.14.34.21.71.21,1.1s-.07.75-.21,1.08-.34.62-.58.87c-.24.25-.53.45-.86.59-.33.14-.67.21-1.03.21-.39,0-.76-.07-1.09-.21s-.62-.34-.87-.59c-.25-.25-.45-.54-.61-.87s-.23-.69-.23-1.08Z"/>
    <path class="cls-1" d="m151.65,381.81v19.38h3.51s.1-.05.21-.16c.12-.13.22-.28.29-.45.08-.17.12-.37.12-.58v-18.18h5.6v18.18c0,.75-.15,1.45-.44,2.11s-.69,1.22-1.19,1.71c-.58.58-1.27,1.04-2.05,1.37-.78.33-1.64.49-2.57.49h-11.79v-4.48h2.69v-19.38h5.6Z"/>
    <path class="cls-1" d="m180.17,407.57c-.24.83-.56,1.57-.96,2.22-.4.65-.88,1.2-1.42,1.67s-1.13.85-1.77,1.16c-.64.31-1.3.55-1.98.71-.68.17-1.37.29-2.07.37-.7.08-1.41.12-2.13.13-.72.01-1.73.02-3.04.02v-4.46c1.17,0,2.01,0,2.53,0,.52,0,1.02-.03,1.5-.08.48-.05.9-.11,1.28-.19.38-.08.71-.18.99-.31.24-.12.46-.28.67-.47.21-.2.4-.45.57-.76.17-.31.31-.7.43-1.16.11-.46.18-.71.19-.73-.52,0-1.25-.05-2.17-.16-.92-.11-1.75-.26-2.49-.46-.74-.2-1.4-.47-1.98-.79-.58-.33-1.09-.71-1.52-1.15-.48-.5-.84-1.04-1.1-1.61-.26-.57-.44-1.17-.55-1.81-.11-.64-.18-1.32-.19-2.04v-2.14c.01-.95.13-1.83.37-2.62s.54-1.51.93-2.15c.39-.64.84-1.19,1.36-1.66.52-.47,1.08-.85,1.68-1.15,1.07-.52,2.22-.79,3.44-.79h.16c1.26,0,2.45.28,3.57.84.57.3,1.12.67,1.63,1.13.52.46.96.99,1.33,1.61.37.61.66,1.3.87,2.05.21.76.32,1.57.32,2.45v8.24c-.06,1.9-.21,3.27-.45,4.1Zm-5.17-12.35c0-.98-.16-1.75-.47-2.31-.32-.56-.69-.95-1.12-1.17-.21-.09-.41-.15-.59-.16-.14,0-.32.05-.54.14-.44.23-.83.64-1.17,1.25s-.52,1.47-.54,2.59c-.01.43-.02.83-.02,1.2,0,.18,0,.36.02.54,0,.54.03,1.01.08,1.41.05.41.13.74.22,1.01.09.27.22.48.37.63.25.26.73.47,1.45.63.71.16,1.48.25,2.3.26v-6.01Z"/>
    <path class="cls-1" d="m189.79,381.81v18.18c0,.23.04.42.11.6s.17.31.29.42c.13.12.2.18.21.18h3.43v4.48h-3.41c-.92,0-1.77-.16-2.57-.49s-1.48-.78-2.05-1.37c-.49-.49-.88-1.06-1.17-1.71s-.44-1.36-.44-2.11v-18.18h5.6Z"/>
    <path class="cls-1" d="m207.01,387.93c.59.3,1.15.68,1.68,1.15.52.47.98,1.02,1.36,1.66.39.64.69,1.35.92,2.14.23.79.35,1.66.37,2.61.01.71.02,1.39.02,2.02,0,.67-.04,1.29-.12,1.88-.08.59-.21,1.05-.38,1.38-.06.12-.09.21-.09.27,0,.11.06.16.18.16.05,0,.1,0,.14-.02h2.84v4.48h-21.18v-4.48h2.91s.06.02.09.02c.08,0,.12-.05.12-.16,0-.06-.02-.15-.05-.27-.12-.33-.22-.79-.3-1.38s-.12-1.21-.12-1.86c-.01-.12-.02-.26-.02-.41,0-.52.01-1.06.04-1.62.01-.94.13-1.81.37-2.6s.54-1.51.93-2.15c.39-.64.84-1.19,1.36-1.66.52-.47,1.08-.85,1.68-1.15.55-.26,1.13-.46,1.75-.59.62-.13,1.24-.2,1.87-.2s1.25.06,1.87.19c.62.12,1.21.32,1.77.6Zm-9.88-5.16c0-.39.07-.76.22-1.1.15-.34.35-.64.6-.89.25-.26.54-.46.87-.6.33-.14.67-.21,1.04-.21s.72.07,1.05.21.63.34.88.6c.26.26.45.55.6.89.14.34.21.7.21,1.1s-.07.75-.21,1.08c-.14.33-.34.62-.6.87-.26.25-.55.45-.88.59s-.68.21-1.05.21-.72-.07-1.04-.21c-.33-.14-.62-.34-.87-.59-.25-.25-.45-.54-.6-.87-.15-.33-.22-.69-.22-1.08Zm8.62,12.79c-.01-.57-.07-1.07-.17-1.5-.1-.43-.24-.8-.4-1.11-.17-.32-.35-.57-.54-.77s-.41-.35-.63-.47c-.05-.02-.13-.05-.25-.07-.12-.02-.24-.04-.36-.05h-.05c-.1,0-.2.01-.3.04-.11.02-.2.05-.29.09-.21.12-.42.28-.62.47s-.38.45-.54.77c-.17.31-.3.69-.4,1.11-.1.43-.16.93-.17,1.5-.01.43-.02.83-.02,1.2,0,.18,0,.36.02.54,0,.54.03,1.01.08,1.41.05.41.13.74.22,1.01s.23.49.39.67c.12.13.22.24.31.33.09.09.19.16.29.22.11.06.24.11.4.15.16.04.38.06.65.06s.51-.02.67-.06c.16-.04.29-.09.39-.15s.2-.14.29-.23c.1-.1.2-.21.32-.34.17-.17.3-.38.39-.65.09-.27.17-.61.22-1.02.05-.41.09-.87.1-1.38v-.55c0-.37,0-.77-.02-1.2Zm-2.59-12.79c0-.39.08-.76.23-1.1.15-.34.36-.64.61-.89.25-.26.54-.46.87-.6s.7-.21,1.09-.21c.36,0,.7.07,1.03.21s.61.34.86.6.44.55.58.89c.14.34.21.7.21,1.1s-.07.75-.21,1.08c-.14.33-.34.62-.58.87-.24.25-.53.45-.86.59s-.67.21-1.03.21c-.39,0-.76-.07-1.09-.21s-.62-.34-.87-.59c-.25-.25-.45-.54-.61-.87-.15-.33-.23-.69-.23-1.08Z"/>
    <path class="cls-1" d="m232.72,405.66h-3.85s-.14.11-.36.25c-.79.67-1.68,1.09-2.69,1.27-.43.08-.86.12-1.3.12-.56,0-1.09-.06-1.61-.18h-.07l-5.51-1.46h-4.46v-4.48h2.1v-5.96c0-.88.11-1.7.32-2.45.21-.75.51-1.44.87-2.05s.81-1.15,1.33-1.61c.52-.46,1.07-.84,1.65-1.13.56-.27,1.14-.48,1.73-.62.59-.14,1.21-.21,1.84-.21h.16c.56,0,1.12.06,1.68.18.59.13,1.18.33,1.75.61.59.3,1.15.68,1.68,1.15.52.47.98,1.02,1.36,1.66.39.64.69,1.35.92,2.14.23.79.35,1.66.37,2.61v.04l.02,5.66h2.07v4.48Zm-12.11-3.83l2.96.78c.3.11.55.16.75.16.02,0,.05,0,.09-.02.17-.01.29-.05.37-.12s.14-.19.2-.37c.05-.18.08-.39.08-.64l-.02-6.07c-.01-.57-.07-1.07-.17-1.5-.1-.43-.23-.8-.4-1.11-.17-.32-.35-.57-.54-.77s-.4-.35-.6-.46c-.21-.09-.39-.14-.54-.14-.19.01-.4.07-.62.16-.42.21-.78.6-1.09,1.17-.31.57-.46,1.33-.46,2.31v6.6Z"/>
    <path class="cls-1" d="m241.14,381.77v18.22c0,.18,0,.29-.02.32.01.07.05.18.12.32s.16.27.27.39c.12.11.2.16.23.16h3.48v4.48h-3.46c-.77,0-1.49-.11-2.16-.33-.67-.22-1.09-.39-1.28-.53-.17.13-.59.31-1.26.53-.67.22-1.39.33-2.17.33h-3.25v-4.48h3.26s.11-.05.23-.16c.21-.23.34-.5.38-.82v-18.43h5.62Z"/>
    <path class="cls-1" d="m254.11,381.81v18.18c0,.75-.15,1.45-.44,2.11s-.68,1.22-1.17,1.71c-.57.58-1.25,1.04-2.04,1.37s-1.65.49-2.58.49h-3.73v-4.48h3.75s.1-.05.21-.16c.12-.12.21-.26.29-.44s.11-.37.11-.6v-18.18h5.6Z"/>
    <path class="cls-1" d="m282.4,397.79c0,.15,0,.31,0,.46,0,.15-.02.28-.03.4-.01.33-.02.62-.02.87,0,.58.03.93.09,1.05.08.18.18.33.3.45.07.06.14.1.2.12.04.02.51.04,1.41.04h1.3v4.48h-2.66c-.88,0-1.69-.15-2.44-.44-.75-.29-1.21-.52-1.39-.69-.08.07-.39.24-.93.5-1.11.56-2.29.84-3.55.84h-.16c-.56,0-1.12-.06-1.68-.18-.59-.13-1.18-.33-1.75-.61-.59-.3-1.15-.68-1.68-1.15-.52-.47-.98-1.02-1.37-1.66-.39-.64-.7-1.35-.93-2.14s-.35-1.66-.37-2.61c-.01-.51-.02-1-.02-1.48v-.68c.01-.73.07-1.41.19-2.04.11-.64.3-1.24.55-1.81s.62-1.11,1.1-1.61c.5-.5,1.09-.92,1.78-1.28.68-.35,1.48-.63,2.38-.84.9-.21,1.94-.35,3.1-.42.67-.04,1.38-.05,2.14-.05.56,0,1.15.01,1.77.04l2.66.11v10.33Zm-13.22-15.17c0-.39.07-.76.22-1.1s.35-.64.6-.89c.25-.26.54-.46.87-.6s.68-.21,1.04-.21.72.07,1.05.21c.33.14.63.34.88.6s.46.55.6.89c.14.34.21.71.21,1.1s-.07.75-.21,1.08c-.14.33-.34.62-.6.87s-.55.45-.88.59c-.33.14-.68.21-1.05.21s-.72-.07-1.04-.21-.62-.34-.87-.59c-.25-.25-.45-.54-.6-.87s-.22-.69-.22-1.08Zm7.6,13.49v-4.33c-.82.01-1.59.1-2.31.27-.72.17-1.2.38-1.44.62-.15.16-.28.37-.37.63-.1.27-.17.6-.22,1.01-.05.4-.08.87-.08,1.41-.01.18-.02.36-.02.54,0,.37,0,.77.02,1.2.01.57.07,1.07.17,1.5.1.43.23.8.4,1.12.17.32.35.57.54.77s.4.35.6.46c.21.09.39.14.54.14.18-.01.38-.07.61-.16.36-.19.68-.51.97-.97s.48-1.07.56-1.83v-2.36h.04Zm-1.57-13.49c0-.39.08-.76.23-1.1.15-.34.36-.64.61-.89.25-.26.54-.46.87-.6s.7-.21,1.09-.21c.36,0,.7.07,1.03.21s.61.34.86.6c.24.26.44.55.58.89.14.34.21.71.21,1.1s-.07.75-.21,1.08c-.14.33-.34.62-.58.87-.24.25-.53.45-.86.59s-.67.21-1.03.21c-.39,0-.76-.07-1.09-.21s-.62-.34-.87-.59c-.25-.25-.45-.54-.61-.87-.15-.33-.23-.69-.23-1.08Z"/>
    <path class="cls-1" d="m283.51,410.46c0-.39.07-.76.22-1.1.15-.34.35-.64.6-.89.25-.26.54-.46.87-.6.33-.14.68-.21,1.04-.21s.72.07,1.05.21c.33.14.63.34.88.6s.46.55.6.89c.14.34.21.71.21,1.1s-.07.75-.21,1.08c-.14.33-.34.62-.6.87s-.55.45-.88.59c-.33.14-.68.21-1.05.21s-.72-.07-1.04-.21c-.33-.14-.62-.34-.87-.59-.25-.25-.45-.54-.6-.87-.15-.33-.22-.69-.22-1.08Zm13.02-21.69v11.22c0,.75-.15,1.45-.44,2.11s-.69,1.22-1.19,1.71c-.58.58-1.26,1.04-2.04,1.37-.78.33-1.64.49-2.58.49h-5.55v-4.48h5.57c.23-.06.39-.22.48-.48.08-.23.12-.49.12-.79v-11.15h5.62Zm-6.99,21.69c0-.39.08-.76.23-1.1.15-.34.36-.64.61-.89.25-.26.54-.46.87-.6s.7-.21,1.09-.21c.36,0,.7.07,1.03.21s.61.34.86.6c.24.26.44.55.58.89.14.34.21.71.21,1.1s-.07.75-.21,1.08c-.14.33-.34.62-.58.87-.24.25-.53.45-.86.59s-.67.21-1.03.21c-.39,0-.76-.07-1.09-.21s-.62-.34-.87-.59c-.25-.25-.45-.54-.61-.87-.15-.33-.23-.69-.23-1.08Z"/>
    <path class="cls-1" d="m308.77,388.77v12.42h2.84v4.48h-2.89c-.02.48-.15,1.13-.39,1.95-.24.83-.56,1.56-.96,2.2s-.88,1.19-1.42,1.65c-.54.46-1.13.84-1.77,1.15-.64.31-1.3.55-1.98.71-.68.17-1.37.29-2.07.37-.7.08-1.41.12-2.12.13-.71.01-1.72.02-3.03.02v-4.46c1.17,0,2.01,0,2.53,0,.52,0,1.02-.03,1.48-.08.46-.05.89-.11,1.27-.19.38-.08.71-.18,1-.31.25-.12.48-.28.7-.48.21-.2.4-.46.57-.79.17-.32.31-.72.42-1.2.11-.48.19-1.04.22-1.7v-15.88h5.62Z"/>
    <path class="cls-1" d="m336.03,401.18h3.28v4.48h-28.78v-4.48h3.48v-12.45h5.6l-.02,4.26c.52-1.64,1.3-2.9,2.33-3.77,1.03-.87,2.32-1.48,3.86-1.81.25-.01.49-.02.73-.02.55,0,1.1.03,1.66.09.79.1,1.55.27,2.28.54.79.26,1.52.61,2.19,1.04.68.43,1.27.96,1.77,1.59.51.62.91,1.34,1.21,2.14s.47,1.7.49,2.7v.34c0,.06,0,.14.02.23v3.92c0,.42-.04.81-.12,1.2Zm-16.41,0h10.33s.09-.05.21-.16c.12-.12.21-.26.29-.44s.11-.37.11-.6v-3.6c0-.12,0-.25,0-.38,0-.14,0-.28,0-.42-.02-.5-.1-.94-.21-1.33-.12-.39-.28-.72-.48-1-.2-.28-.44-.51-.71-.7-.27-.18-.57-.34-.89-.46-.3-.09-.62-.16-.96-.2-.24-.04-.48-.05-.71-.05-.12,0-.24,0-.37.02-1.83.1-3.37.81-4.61,2.13-1.24,1.33-1.89,2.84-1.95,4.54v2.64Z"/>
    <path class="cls-1" d="m358.1,405.66h-3.85s-.14.11-.36.25c-.79.67-1.68,1.09-2.69,1.27-.43.08-.86.12-1.3.12-.56,0-1.09-.06-1.61-.18h-.07l-5.51-1.46h-4.46v-4.48h2.1v-5.96c0-.88.11-1.7.32-2.45.21-.75.51-1.44.87-2.05s.81-1.15,1.33-1.61c.52-.46,1.07-.84,1.65-1.13.56-.27,1.14-.48,1.73-.62.59-.14,1.21-.21,1.84-.21h.16c.56,0,1.12.06,1.68.18.59.13,1.18.33,1.75.61.59.3,1.15.68,1.68,1.15.52.47.98,1.02,1.36,1.66.39.64.69,1.35.92,2.14.23.79.35,1.66.37,2.61v.04l.02,5.66h2.07v4.48Zm-12.11-3.83l2.96.78c.3.11.55.16.75.16.02,0,.05,0,.09-.02.17-.01.29-.05.37-.12s.14-.19.2-.37c.05-.18.08-.39.08-.64l-.02-6.07c-.01-.57-.07-1.07-.17-1.5-.1-.43-.23-.8-.4-1.11-.17-.32-.35-.57-.54-.77s-.4-.35-.6-.46c-.21-.09-.39-.14-.54-.14-.19.01-.4.07-.62.16-.42.21-.78.6-1.09,1.17-.31.57-.46,1.33-.46,2.31v6.6Z"/>
    <path class="cls-1" d="m366.99,381.81v18.18c0,.75-.15,1.45-.44,2.11s-.68,1.22-1.17,1.71c-.57.58-1.25,1.04-2.04,1.37s-1.65.49-2.58.49h-3.73v-4.48h3.75s.1-.05.21-.16c.12-.12.21-.26.29-.44s.11-.37.11-.6v-18.18h5.6Z"/>
    <path class="cls-1" d="m376.16,381.81v23.66h-5.6v-23.66h5.6Z"/>
  </g>
</svg>