<?xml version="1.0" encoding="UTF-8"?>
<svg id="OBJECTS" xmlns="http://www.w3.org/2000/svg" version="1.1" viewBox="0 0 1300.75 487.98">
  <!-- Generator: Adobe Illustrator 30.5.0, SVG Export Plug-In . SVG Version: 2.1.4 Build 102)  -->
  <defs>
    <style>
      .st0 {
        fill: none;
        stroke: #ffc736;
        stroke-miterlimit: 10;
        stroke-width: .25px;
      }

      .st1 {
        fill: #fff;
      }

      .st2, .st3 {
        fill: #ffc736;
      }

      .st4, .st3 {
        isolation: isolate;
      }

      .st3 {
        font-family: BritannicBold, 'Britannic Bold';
        font-size: 54.32px;
      }
    </style>
  </defs>
  <g>
    <polygon class="st2" points="348.08 220.25 308.7 191.96 270.43 191.96 309.81 220.25 348.08 220.25"/>
    <polygon class="st2" points="372.27 265.09 410.54 265.09 371.11 236.78 332.84 236.78 372.27 265.09"/>
    <polygon class="st2" points="434.7 309.93 472.99 309.93 433.56 281.62 395.28 281.62 434.7 309.93"/>
    <polygon class="st2" points="495.98 326.44 457.71 326.44 497.12 354.75 535.41 354.75 495.98 326.44"/>
    <path class="st2" d="M123.08,277.11v-147.01l112.98-89.8v66.49h-7.34v16.1h8.55v9.26c-6.55,1.35-11.49,7.18-11.49,14.14,0,7.96,6.47,14.44,14.44,14.44s14.44-6.47,14.44-14.44h-5.88c0,4.71-3.84,8.55-8.55,8.55s-8.55-3.84-8.55-8.55,3.84-8.55,8.55-8.55h2.94v-14.85h8.55v-16.1h-7.34V33.69l17.08-13.57-.18-20.12L123.07,109.86v-30.52l-9.38,7.08v30.89l-7.79,6.2v-31.21l-22.69,17.12v32.13l-14.79,11.75v-32.72L0,172.23v83.25l68.44-54.41v-27.5l14.79-11.75v143.95l-68.28,49.04h46.33l180.38-129.52,180.38,129.52h46.33l-226.71-162.8-118.57,85.15v-.04h-.01,0ZM35.91,208.71l-22.56,17.93v-27.42l22.56-17.03v26.52h0ZM105.92,143.73l7.79-6.2v146.31l-7.79,5.59v-145.7Z"/>
    <rect class="st2" x="212.88" y="277.89" width="23.69" height="31.74"/>
    <rect class="st2" x="246.73" y="277.89" width="23.69" height="31.74"/>
    <rect class="st2" x="212.88" y="322.2" width="23.69" height="31.74"/>
    <rect class="st2" x="246.73" y="322.2" width="23.69" height="31.74"/>
    <polygon class="st2" points="24.63 255.44 68.43 255.44 68.43 220.62 24.63 255.44"/>
  </g>
  <g>
    <path class="st1" d="M26.57,366.06h41.25l25.36,41.6,25.36-41.6h41.25v118.36h-39.41v-58.67l-27.3,42.09h-.69l-27.3-42.09v58.67H26.55v-118.36h.02Z"/>
    <path class="st1" d="M170.8,445.54h39.23v38.9h-39.23v-38.9Z"/>
    <path class="st1" d="M279.69,486.97c-8.24,0-16.05-1.47-23.42-4.39-7.38-2.92-13.89-7.1-19.54-12.51-5.63-5.41-10.12-11.89-13.44-19.44-3.33-7.55-4.98-15.89-4.98-25.03v-.33c0-8.79,1.61-16.97,4.83-24.52s7.67-14.08,13.36-19.61,12.38-9.83,20.05-12.93c7.67-3.1,15.89-4.65,24.7-4.65,6.53,0,12.53.77,18.01,2.28,5.47,1.53,10.42,3.63,14.89,6.34,4.45,2.71,8.4,5.94,11.83,9.73s6.39,7.92,8.89,12.44l-32.64,19.1c-2.26-4.28-5.04-7.75-8.38-10.4-3.33-2.65-7.69-3.98-13.1-3.98-3.37,0-6.43.67-9.14,2.02s-5.02,3.22-6.92,5.57c-1.92,2.37-3.41,5.14-4.47,8.28-1.08,3.16-1.61,6.49-1.61,9.98v.33c0,3.82.53,7.36,1.61,10.57s2.59,5.98,4.57,8.28c1.96,2.31,4.32,4.12,7.02,5.41s5.69,1.94,8.96,1.94c5.63,0,10.14-1.37,13.53-4.14,3.37-2.77,6.32-6.34,8.79-10.73l32.64,18.44c-2.47,4.39-5.41,8.53-8.79,12.44-3.37,3.88-7.36,7.28-11.93,10.14-4.57,2.88-9.75,5.16-15.55,6.85s-12.38,2.53-19.69,2.53h-.08Z"/>
    <path class="st1" d="M340.73,445.54h39.23v38.9h-39.23v-38.9Z"/>
    <path class="st1" d="M454.69,486.97c-9.24,0-17.89-1.47-25.95-4.39s-15.1-7.1-21.14-12.51c-6.02-5.41-10.77-11.89-14.2-19.44-3.43-7.55-5.16-15.89-5.16-25.03v-.33c0-8.79,1.63-16.97,4.9-24.52s7.83-14.08,13.69-19.61c5.86-5.53,12.77-9.83,20.71-12.93s16.59-4.65,25.95-4.65c10.26,0,19.48,1.59,27.64,4.73,8.18,3.16,15.48,7.55,21.89,13.18l-22.15,26.72c-3.94-3.28-8.06-5.81-12.34-7.61s-8.91-2.71-13.87-2.71c-3.82,0-7.38.71-10.65,2.12-3.28,1.41-6.08,3.35-8.45,5.83s-4.2,5.41-5.49,8.79c-1.29,3.37-1.94,7.1-1.94,11.16v.33c0,4.18.71,8,2.12,11.49s3.35,6.47,5.83,8.96c2.47,2.47,5.43,4.39,8.89,5.75,3.43,1.35,7.24,2.04,11.42,2.04,3.37,0,6.08-.24,8.12-.67,2.02-.45,3.82-1.12,5.41-2.04v-11.83h-20.28v-25.19h57.31v54.67c-6.43,5.28-14.02,9.55-22.83,12.83-8.79,3.26-18.59,4.88-29.42,4.88v-.02h-.01,0Z"/>
  </g>
  <g>
    <path class="st1" d="M567.26,321.42v21.56c0,.66.12,1.21.31,1.73s.49.92.84,1.27c.35.31.58.46.66.46h33.14s.27-.14.6-.46c.35-.35.6-.74.84-1.27s.31-1.06.31-1.73v-32.22h16.14v32.22c0,2.16-.43,4.17-1.27,6.08-.84,1.87-1.96,3.51-3.37,4.93-1.65,1.66-3.59,2.99-5.88,3.95-2.27.95-4.74,1.42-7.43,1.42h-33.03c-2.71,0-5.21-.46-7.49-1.42s-4.23-2.24-5.88-3.95c-1.42-1.42-2.53-3.05-3.37-4.93s-1.27-3.05-1.27-3.49h-.06v-24.13h16.18v-.03h.01ZM567.73,300.66c0-1.12.2-2.2.64-3.17s1.01-1.84,1.73-2.57c.72-.74,1.56-1.33,2.5-1.73s1.93-.6,2.99-.6,2.07.2,3.02.6,1.81.98,2.53,1.73,1.33,1.58,1.73,2.57.6,2.05.6,3.17-.2,2.16-.6,3.12-.98,1.79-1.73,2.5-1.58,1.29-2.53,1.7-1.96.6-3.02.6-2.07-.2-2.99-.6-1.79-.98-2.5-1.7-1.29-1.56-1.73-2.5-.64-1.99-.64-3.12ZM585.08,300.66c0-1.12.23-2.2.66-3.17s1.03-1.84,1.76-2.57c.72-.74,1.56-1.33,2.5-1.73s2.02-.6,3.14-.6c1.03,0,2.02.2,2.96.6s1.76.98,2.48,1.73c.69.74,1.27,1.58,1.66,2.57s.6,2.05.6,3.17-.2,2.16-.6,3.12-.98,1.79-1.66,2.5-1.52,1.29-2.48,1.7-1.93.6-2.96.6c-1.12,0-2.2-.2-3.14-.6s-1.79-.98-2.5-1.7-1.29-1.56-1.76-2.5-.66-1.99-.66-3.12Z"/>
    <path class="st1" d="M654.26,290.66v55.81h10.11s.29-.14.6-.46c.35-.37.64-.81.84-1.29.23-.49.35-1.06.35-1.66v-52.35h16.14v52.35c0,2.16-.43,4.17-1.27,6.08s-1.99,3.51-3.43,4.93c-1.66,1.66-3.66,2.99-5.89,3.95s-4.73,1.42-7.41,1.42h-33.94v-12.9h7.74v-55.81h16.14l.06-.03-.03-.02h0Z"/>
    <path class="st1" d="M736.38,364.84c-.69,2.39-1.62,4.52-2.77,6.39s-2.53,3.45-4.09,4.81-3.25,2.44-5.1,3.35-3.74,1.58-5.7,2.05c-1.96.49-3.95.84-5.96,1.06-2.02.23-4.06.35-6.13.37s-4.98.06-8.75.06v-12.85h7.28c1.5,0,2.94-.09,4.32-.23s2.59-.31,3.69-.55,2.05-.51,2.85-.88c.69-.35,1.33-.81,1.93-1.35.6-.58,1.15-1.29,1.65-2.2.49-.88.88-2.02,1.24-3.35.31-1.33.51-2.05.55-2.1-1.5,0-3.59-.14-6.25-.46-2.65-.31-5.05-.74-7.17-1.33s-4.03-1.35-5.7-2.27c-1.66-.95-3.14-2.05-4.37-3.31-1.38-1.44-2.42-2.99-3.17-4.64-.74-1.65-1.27-3.37-1.58-5.21-.31-1.84-.51-3.8-.55-5.88v-6.16c.03-2.73.37-5.28,1.06-7.54s1.56-4.35,2.67-6.2c1.12-1.84,2.42-3.43,3.92-4.78s3.12-2.44,4.84-3.31c3.08-1.5,6.39-2.27,9.9-2.27h.47c3.63,0,7.04.81,10.29,2.42,1.65.87,3.22,1.93,4.7,3.25,1.5,1.33,2.77,2.85,3.82,4.64,1.06,1.76,1.89,3.74,2.5,5.89.6,2.2.92,4.52.92,7.04v23.73c-.17,5.48-.6,9.42-1.29,11.81v-.03.03h0ZM721.5,329.28c0-2.81-.47-5.05-1.35-6.66-.92-1.62-1.99-2.73-3.22-3.37-.6-.27-1.19-.43-1.7-.46-.41,0-.92.14-1.56.41-1.27.66-2.39,1.84-3.37,3.59s-1.5,4.23-1.56,7.45c-.03,1.24-.06,2.39-.06,3.45,0,.51,0,1.03.06,1.56,0,1.56.09,2.91.23,4.06.14,1.19.37,2.13.64,2.91s.64,1.38,1.06,1.81c.72.74,2.1,1.35,4.17,1.81,2.05.46,4.27.72,6.63.74v-17.3l.03-.03h0v.03Z"/>
    <path class="st1" d="M764.08,290.66v52.35c0,.66.12,1.21.31,1.73s.49.88.84,1.21c.37.35.58.51.6.51h9.88v12.9h-9.82c-2.65,0-5.1-.46-7.41-1.42s-4.27-2.24-5.89-3.95c-1.42-1.42-2.53-3.05-3.37-4.93s-1.27-3.92-1.27-6.08v-52.35h16.14v.02h-.01Z"/>
    <path class="st1" d="M813.66,308.29c1.7.87,3.31,1.96,4.84,3.31,1.5,1.35,2.81,2.94,3.92,4.78,1.12,1.84,1.99,3.89,2.65,6.16s1.01,4.78,1.06,7.51c.03,2.05.06,4,.06,5.81,0,1.93-.12,3.72-.35,5.42s-.6,3.02-1.09,3.96c-.17.35-.27.6-.27.78,0,.31.17.46.51.46.14,0,.29,0,.41-.06h8.18v12.9h-60.98v-12.9h8.38s.17.06.27.06c.23,0,.35-.14.35-.46,0-.17-.06-.43-.14-.78-.35-.95-.64-2.27-.87-3.96s-.35-3.49-.35-5.36c-.03-.35-.06-.74-.06-1.19,0-1.5.03-3.05.12-4.66.03-2.71.37-5.21,1.06-7.49s1.56-4.35,2.67-6.2c1.12-1.84,2.42-3.43,3.92-4.78s3.12-2.44,4.84-3.31c1.58-.74,3.25-1.33,5.05-1.7s3.58-.58,5.38-.58,3.59.17,5.38.55c1.79.35,3.49.92,5.1,1.73l-.03-.03h0v.02ZM785.22,293.43c0-1.12.2-2.2.64-3.17s1.01-1.84,1.73-2.57c.72-.74,1.56-1.33,2.5-1.73s1.93-.6,2.99-.6,2.07.2,3.02.6,1.81.98,2.53,1.73c.74.74,1.29,1.58,1.73,2.57.41.98.6,2.02.6,3.17s-.2,2.16-.6,3.12-.98,1.79-1.73,2.5c-.74.72-1.58,1.29-2.53,1.7s-1.96.6-3.02.6-2.07-.2-2.99-.6c-.95-.41-1.79-.98-2.5-1.7s-1.29-1.56-1.73-2.5-.64-1.99-.64-3.12ZM810.04,330.26c-.03-1.65-.2-3.08-.49-4.32s-.69-2.3-1.15-3.2c-.49-.92-1.01-1.65-1.56-2.22s-1.19-1.01-1.81-1.35c-.14-.06-.37-.14-.72-.2s-.69-.12-1.03-.14h-.14c-.29,0-.58.03-.87.12-.31.06-.58.14-.84.27-.6.35-1.21.81-1.79,1.35s-1.09,1.29-1.56,2.22c-.49.88-.87,1.99-1.15,3.2-.29,1.24-.47,2.67-.49,4.32-.03,1.24-.06,2.39-.06,3.45,0,.51,0,1.03.06,1.56,0,1.56.09,2.91.23,4.06.14,1.19.37,2.13.64,2.91s.66,1.42,1.12,1.93c.35.37.64.69.88.95s.55.46.84.64c.31.17.69.31,1.15.43.47.12,1.09.17,1.87.17s1.46-.06,1.93-.17.84-.27,1.12-.43.58-.41.84-.66c.29-.29.58-.6.92-.98.49-.49.87-1.09,1.12-1.87s.49-1.76.64-2.94.27-2.5.29-3.96v-1.58c0-1.06,0-2.22-.06-3.45l.06-.06h0l.02-.03ZM802.58,293.43c0-1.12.23-2.2.66-3.17s1.03-1.84,1.76-2.57c.72-.74,1.56-1.33,2.5-1.73s2.02-.6,3.14-.6c1.03,0,2.02.2,2.96.6s1.76.98,2.48,1.73,1.27,1.58,1.66,2.57.6,2.02.6,3.17-.2,2.16-.6,3.12-.98,1.79-1.66,2.5-1.52,1.29-2.48,1.7-1.93.6-2.96.6c-1.12,0-2.2-.2-3.14-.6s-1.79-.98-2.5-1.7-1.29-1.56-1.76-2.5c-.43-.95-.66-1.99-.66-3.12Z"/>
    <path class="st1" d="M887.7,359.34h-11.09s-.41.31-1.03.72c-2.27,1.93-4.84,3.14-7.74,3.66-1.24.23-2.48.35-3.74.35-1.62,0-3.14-.17-4.64-.51h-.2l-15.87-4.2h-12.85v-12.9h6.04v-17.16c0-2.53.31-4.89.92-7.04s1.46-4.15,2.5-5.89,2.34-3.31,3.82-4.64,3.08-2.42,4.74-3.25c1.62-.78,3.28-1.38,4.98-1.79s3.49-.6,5.3-.6h.47c1.62,0,3.22.17,4.84.51,1.7.37,3.39.95,5.05,1.76,1.7.87,3.31,1.96,4.84,3.31,1.5,1.35,2.81,2.94,3.92,4.78,1.12,1.84,1.99,3.89,2.65,6.16s1.01,4.78,1.06,7.51v.12l.06,16.3h5.96v12.9-.06h.02v-.02ZM852.84,348.32l8.52,2.24c.87.31,1.58.46,2.16.46.06,0,.14,0,.27-.06.49-.03.84-.14,1.06-.35s.41-.55.58-1.06c.14-.51.23-1.12.23-1.84l-.06-17.48c-.03-1.65-.2-3.08-.49-4.32s-.66-2.3-1.15-3.2c-.49-.92-1.01-1.65-1.56-2.22s-1.15-1.01-1.73-1.33c-.6-.27-1.12-.41-1.56-.41-.55.03-1.15.2-1.79.46-1.21.6-2.24,1.73-3.14,3.37s-1.33,3.82-1.33,6.66v19.01l-.03.06v-.02h.01Z"/>
    <path class="st1" d="M911.95,290.55v52.46c0,.51,0,.84-.06.92.03.2.14.51.35.92s.47.78.78,1.12c.35.31.58.46.66.46h10.02v12.9h-9.96c-2.22,0-4.29-.31-6.22-.95s-3.14-1.12-3.69-1.52c-.49.37-1.7.88-3.63,1.52s-4,.95-6.25.95h-9.36v-12.9h9.38s.31-.14.66-.46c.6-.66.98-1.44,1.09-2.36v-53.07h16.22,0Z"/>
    <path class="st1" d="M949.3,290.66v52.35c0,2.16-.43,4.17-1.27,6.08s-1.96,3.51-3.37,4.93c-1.65,1.66-3.59,2.99-5.88,3.95s-4.74,1.42-7.43,1.42h-10.74v-12.9h10.8s.29-.14.6-.46c.35-.35.6-.74.84-1.27s.31-1.06.31-1.73v-52.35h16.14v-.02h0Z"/>
    <path class="st1" d="M1030.77,336.69v1.33c0,.43-.06.81-.09,1.15-.03.95-.06,1.79-.06,2.5,0,1.66.09,2.67.27,3.02.23.51.51.95.87,1.29.2.17.41.29.58.35.12.06,1.46.12,4.06.12h3.74v12.9h-7.66c-2.53,0-4.87-.43-7.03-1.27s-3.49-1.5-4-1.99c-.23.2-1.12.69-2.67,1.44-3.2,1.62-6.59,2.42-10.22,2.42h-.47c-1.62,0-3.22-.17-4.84-.51-1.7-.37-3.39-.95-5.05-1.76-1.7-.87-3.31-1.96-4.84-3.31-1.5-1.35-2.81-2.94-3.95-4.78-1.12-1.84-2.02-3.89-2.67-6.16s-1.01-4.78-1.06-7.51c-.03-1.46-.06-2.88-.06-4.27v-1.96c.03-2.1.2-4.06.55-5.88.31-1.84.87-3.58,1.58-5.21s1.79-3.2,3.17-4.64c1.44-1.44,3.14-2.65,5.13-3.69,1.96-1.01,4.27-1.81,6.86-2.42,2.59-.6,5.58-1.01,8.93-1.21,1.93-.12,3.96-.14,6.16-.14,1.62,0,3.31.03,5.1.12l7.66.31v29.75h.03v.02h0l-.03-.02ZM992.7,293c0-1.12.2-2.2.64-3.17s1.01-1.84,1.73-2.57c.72-.74,1.56-1.33,2.5-1.73s1.96-.6,2.99-.6,2.07.2,3.02.6,1.81.98,2.53,1.73,1.33,1.58,1.73,2.57.6,2.05.6,3.17-.2,2.16-.6,3.12c-.41.95-.98,1.79-1.73,2.5s-1.58,1.29-2.53,1.7-1.96.6-3.02.6-2.07-.2-2.99-.6-1.79-.98-2.5-1.7-1.29-1.56-1.73-2.5-.64-1.99-.64-3.12ZM1014.57,331.84v-12.46c-2.36.03-4.58.29-6.66.78-2.07.49-3.45,1.09-4.15,1.79-.43.46-.81,1.06-1.06,1.81-.29.78-.49,1.73-.64,2.91-.14,1.15-.23,2.5-.23,4.06-.03.51-.06,1.03-.06,1.56,0,1.06,0,2.22.06,3.45.03,1.65.2,3.08.49,4.32s.66,2.3,1.15,3.22c.49.92,1.01,1.65,1.56,2.22s1.15,1.01,1.73,1.33c.6.27,1.12.41,1.56.41.51-.03,1.09-.2,1.76-.46,1.03-.55,1.96-1.46,2.8-2.8s1.38-3.08,1.62-5.28v-6.8h.12l-.03-.06h0ZM1010.06,293c0-1.12.23-2.2.66-3.17s1.03-1.84,1.76-2.57c.72-.74,1.56-1.33,2.5-1.73s2.02-.6,3.14-.6c1.03,0,2.02.2,2.96.6s1.76.98,2.48,1.73c.69.74,1.27,1.58,1.66,2.57s.6,2.05.6,3.17-.2,2.16-.6,3.12c-.41.95-.98,1.79-1.66,2.5s-1.52,1.29-2.48,1.7-1.93.6-2.96.6c-1.12,0-2.2-.2-3.14-.6s-1.79-.98-2.5-1.7-1.29-1.56-1.76-2.5c-.43-.95-.66-1.99-.66-3.12Z"/>
    <path class="st1" d="M1033.97,373.16c0-1.12.2-2.2.64-3.17s1.01-1.84,1.73-2.57c.72-.74,1.56-1.33,2.5-1.73s1.96-.6,2.99-.6,2.07.2,3.02.6,1.81.98,2.53,1.73,1.33,1.58,1.73,2.57c.41.98.6,2.05.6,3.17s-.2,2.16-.6,3.12c-.41.95-.98,1.79-1.73,2.5s-1.58,1.29-2.53,1.7-1.96.6-3.02.6-2.07-.2-2.99-.6c-.95-.41-1.79-.98-2.5-1.7s-1.29-1.56-1.73-2.5-.64-1.99-.64-3.12ZM1071.46,310.72v32.32c0,2.16-.43,4.17-1.27,6.08s-1.99,3.51-3.43,4.93c-1.66,1.66-3.63,2.99-5.88,3.95-2.24.95-4.73,1.42-7.43,1.42h-15.98v-12.9h16.04c.66-.17,1.12-.64,1.38-1.38.23-.66.35-1.42.35-2.27v-32.11h16.22v-.02h0ZM1051.32,373.16c0-1.12.23-2.2.66-3.17s1.03-1.84,1.76-2.57c.72-.74,1.56-1.33,2.5-1.73s2.02-.6,3.14-.6c1.03,0,2.02.2,2.96.6s1.76.98,2.48,1.73c.69.74,1.27,1.58,1.66,2.57s.6,2.05.6,3.17-.2,2.16-.6,3.12c-.41.95-.98,1.79-1.66,2.5s-1.52,1.29-2.48,1.7-1.93.6-2.96.6c-1.12,0-2.2-.2-3.14-.6s-1.79-.98-2.5-1.7-1.29-1.56-1.76-2.5c-.43-.95-.66-1.99-.66-3.12Z"/>
    <path class="st1" d="M1106.69,310.72v35.77h8.18v12.9h-8.32c-.06,1.38-.43,3.25-1.12,5.61-.69,2.39-1.62,4.5-2.77,6.34s-2.53,3.43-4.09,4.74-3.25,2.42-5.1,3.31c-1.84.88-3.74,1.58-5.7,2.05-1.96.49-3.95.84-5.96,1.06s-4.06.35-6.1.37-4.95.06-8.73.06v-12.85h7.28c1.5,0,2.94-.09,4.27-.23,1.33-.14,2.57-.31,3.66-.55s2.05-.51,2.88-.88c.72-.35,1.38-.81,2.02-1.38.6-.58,1.15-1.33,1.65-2.27.49-.92.88-2.07,1.21-3.45.31-1.38.55-2.99.64-4.89v-45.72h16.18l-.06.03h0l-.02-.02Z"/>
    <path class="st1" d="M1185.19,346.45h9.44v12.9h-82.87v-12.9h10.02v-35.85h16.14l-.06,12.26c1.5-4.73,3.74-8.36,6.71-10.86s6.67-4.27,11.11-5.21c.72-.03,1.42-.06,2.1-.06,1.58,0,3.17.09,4.78.27,2.27.29,4.46.78,6.57,1.56,2.27.74,4.37,1.76,6.3,2.99,1.96,1.24,3.66,2.77,5.1,4.58,1.46,1.79,2.62,3.86,3.49,6.16s1.35,4.89,1.42,7.78v.98c0,.17,0,.41.06.66v11.29c0,1.21-.12,2.34-.35,3.45h.06-.01ZM1137.95,346.45h29.75s.27-.14.6-.46c.35-.35.6-.74.84-1.27s.31-1.06.31-1.73v-12.67c-.06-1.44-.29-2.71-.6-3.82-.35-1.12-.81-2.07-1.38-2.88s-1.27-1.46-2.05-2.02c-.78-.51-1.65-.98-2.57-1.33-.87-.27-1.79-.46-2.77-.58-.69-.12-1.38-.14-2.05-.14-.35,0-.69,0-1.06.06-5.28.29-9.71,2.34-13.28,6.13-3.58,3.82-5.44,8.18-5.61,13.07v7.6l-.14.03h0v.02Z"/>
    <path class="st1" d="M1248.75,359.34h-11.09s-.41.31-1.03.72c-2.27,1.93-4.84,3.14-7.74,3.66-1.24.23-2.48.35-3.74.35-1.62,0-3.14-.17-4.64-.51h-.2l-15.87-4.2h-12.85v-12.9h6.04v-17.16c0-2.53.31-4.89.92-7.04.6-2.16,1.46-4.15,2.5-5.89,1.03-1.76,2.34-3.31,3.82-4.64s3.08-2.42,4.74-3.25c1.62-.78,3.28-1.38,4.98-1.79s3.49-.6,5.3-.6h.47c1.62,0,3.22.17,4.84.51,1.7.37,3.39.95,5.05,1.76,1.7.87,3.31,1.96,4.84,3.31,1.5,1.35,2.81,2.94,3.92,4.78,1.12,1.84,1.99,3.89,2.65,6.16s1.01,4.78,1.06,7.51v.12l.06,16.3h5.96v12.9-.06h.02v-.02ZM1213.87,348.32l8.52,2.24c.87.31,1.58.46,2.16.46.06,0,.14,0,.27-.06.49-.03.84-.14,1.06-.35s.41-.55.58-1.06c.14-.51.23-1.12.23-1.84l-.06-17.48c-.03-1.65-.2-3.08-.49-4.32s-.66-2.3-1.15-3.2c-.49-.92-1.01-1.65-1.56-2.22s-1.15-1.01-1.73-1.33c-.6-.27-1.12-.41-1.56-.41-.55.03-1.15.2-1.79.46-1.21.6-2.24,1.73-3.14,3.37s-1.33,3.82-1.33,6.66v19.01l-.03.06v-.02h.01Z"/>
    <path class="st1" d="M1274.34,290.66v52.35c0,2.16-.43,4.17-1.27,6.08s-1.96,3.51-3.37,4.93c-1.65,1.66-3.59,2.99-5.88,3.95s-4.74,1.42-7.43,1.42h-10.74v-12.9h10.8s.29-.14.6-.46c.35-.35.6-.74.84-1.27s.31-1.06.31-1.73v-52.35h16.14v-.02h0Z"/>
    <path class="st1" d="M1300.75,290.66v68.13h-16.14v-68.13h16.14Z"/>
  </g>
  <g class="st4">
    <g class="st4">
      <g class="st4">
        <g class="st4">
          <text class="st3" transform="translate(551.08 447.5)"><tspan x="0" y="0">EL MASREYA CONTRACTING</tspan></text>
        </g>
      </g>
    </g>
  </g>
  <polyline class="st0" points="1285 487.85 1286.9 487.85 1286.9 486.13"/>
</svg>