<?xml version="1.0" encoding="UTF-8"?>
<svg id="OBJECTS" xmlns="http://www.w3.org/2000/svg" version="1.1" viewBox="0 0 1293.32 486.99">
  <!-- Generator: Adobe Illustrator 30.5.0, SVG Export Plug-In . SVG Version: 2.1.4 Build 102)  -->
  <defs>
    <style>
      .st0 {
        fill: #fff;
      }

      .st1 {
        font-family: BritannicBold, 'Britannic Bold';
        font-size: 62.52px;
      }

      .st1, .st2 {
        fill: #ffc736;
      }

      .st1, .st3 {
        isolation: isolate;
      }
    </style>
  </defs>
  <g>
    <polygon class="st2" points="348.08 220.25 308.7 191.96 270.43 191.96 309.81 220.25 348.08 220.25"/>
    <polygon class="st2" points="372.27 265.09 410.54 265.09 371.11 236.78 332.84 236.78 372.27 265.09"/>
    <polygon class="st2" points="434.7 309.93 472.99 309.93 433.56 281.62 395.28 281.62 434.7 309.93"/>
    <polygon class="st2" points="495.98 326.44 457.71 326.44 497.12 354.75 535.41 354.75 495.98 326.44"/>
    <path class="st2" d="M123.08,277.11v-147.01l112.98-89.8v66.49h-7.34v16.1h8.55v9.26c-6.55,1.35-11.49,7.18-11.49,14.14,0,7.96,6.47,14.44,14.44,14.44s14.44-6.47,14.44-14.44h-5.88c0,4.71-3.84,8.55-8.55,8.55s-8.55-3.84-8.55-8.55,3.84-8.55,8.55-8.55h2.94v-14.85h8.55v-16.1h-7.34V33.69l17.08-13.57-.18-20.12L123.07,109.86v-30.52l-9.38,7.08v30.89l-7.79,6.2v-31.21l-22.69,17.12v32.13l-14.79,11.75v-32.72L0,172.23v83.25l68.44-54.41v-27.5l14.79-11.75v143.95l-68.28,49.04h46.33l180.38-129.52,180.38,129.52h46.33l-226.71-162.8-118.57,85.15v-.04h-.01ZM35.91,208.71l-22.56,17.93v-27.42l22.56-17.03v26.52h0ZM105.92,143.73l7.79-6.2v146.31l-7.79,5.59v-145.7Z"/>
    <rect class="st2" x="212.88" y="277.89" width="23.69" height="31.74"/>
    <rect class="st2" x="246.73" y="277.89" width="23.69" height="31.74"/>
    <rect class="st2" x="212.88" y="322.2" width="23.69" height="31.74"/>
    <rect class="st2" x="246.73" y="322.2" width="23.69" height="31.74"/>
    <polygon class="st2" points="24.63 255.44 68.43 255.44 68.43 220.62 24.63 255.44"/>
  </g>
  <g>
    <path class="st0" d="M26.57,366.06h41.25l25.36,41.6,25.36-41.6h41.25v118.36h-39.41v-58.67l-27.3,42.09h-.69l-27.3-42.09v58.67H26.55v-118.36h.02Z"/>
    <path class="st0" d="M170.8,445.54h39.23v38.9h-39.23v-38.9Z"/>
    <path class="st0" d="M279.69,486.97c-8.24,0-16.05-1.47-23.42-4.39-7.38-2.92-13.89-7.1-19.54-12.51-5.63-5.41-10.12-11.89-13.44-19.44-3.33-7.55-4.98-15.89-4.98-25.03v-.33c0-8.79,1.61-16.97,4.83-24.52s7.67-14.08,13.36-19.61,12.38-9.83,20.05-12.93,15.89-4.65,24.7-4.65c6.53,0,12.53.77,18.01,2.28,5.47,1.53,10.42,3.63,14.89,6.34,4.45,2.71,8.4,5.94,11.83,9.73s6.39,7.92,8.89,12.44l-32.64,19.1c-2.26-4.28-5.04-7.75-8.38-10.4-3.33-2.65-7.69-3.98-13.1-3.98-3.37,0-6.43.67-9.14,2.02s-5.02,3.22-6.92,5.57c-1.92,2.37-3.41,5.14-4.47,8.28-1.08,3.16-1.61,6.49-1.61,9.98v.33c0,3.82.53,7.36,1.61,10.57s2.59,5.98,4.57,8.28c1.96,2.31,4.32,4.12,7.02,5.41s5.69,1.94,8.96,1.94c5.63,0,10.14-1.37,13.53-4.14,3.37-2.77,6.32-6.34,8.79-10.73l32.64,18.44c-2.47,4.39-5.41,8.53-8.79,12.44-3.37,3.88-7.36,7.28-11.93,10.14-4.57,2.88-9.75,5.16-15.55,6.85s-12.38,2.53-19.69,2.53h-.08Z"/>
    <path class="st0" d="M340.73,445.54h39.23v38.9h-39.23v-38.9Z"/>
    <path class="st0" d="M454.69,486.97c-9.24,0-17.89-1.47-25.95-4.39s-15.1-7.1-21.14-12.51c-6.02-5.41-10.77-11.89-14.2-19.44-3.43-7.55-5.16-15.89-5.16-25.03v-.33c0-8.79,1.63-16.97,4.9-24.52s7.83-14.08,13.69-19.61c5.86-5.53,12.77-9.83,20.71-12.93s16.59-4.65,25.95-4.65c10.26,0,19.48,1.59,27.64,4.73,8.18,3.16,15.48,7.55,21.89,13.18l-22.15,26.72c-3.94-3.28-8.06-5.81-12.34-7.61s-8.91-2.71-13.87-2.71c-3.82,0-7.38.71-10.65,2.12-3.28,1.41-6.08,3.35-8.45,5.83s-4.2,5.41-5.49,8.79c-1.29,3.37-1.94,7.1-1.94,11.16v.33c0,4.18.71,8,2.12,11.49s3.35,6.47,5.83,8.96c2.47,2.47,5.43,4.39,8.89,5.75,3.43,1.35,7.24,2.04,11.42,2.04,3.37,0,6.08-.24,8.12-.67,2.02-.45,3.82-1.12,5.41-2.04v-11.83h-20.28v-25.19h57.31v54.67c-6.43,5.28-14.02,9.55-22.83,12.83-8.79,3.26-18.59,4.88-29.42,4.88v-.02h-.01Z"/>
  </g>
  <g>
    <path class="st0" d="M567.1,315.13v21.35c0,.66.11,1.2.31,1.71s.48.91.83,1.25c.34.31.57.46.66.46h32.81s.26-.14.6-.46c.34-.34.6-.74.83-1.25s.31-1.05.31-1.71v-31.9h15.97v31.9c0,2.14-.43,4.13-1.25,6.02-.83,1.85-1.94,3.48-3.34,4.88-1.63,1.65-3.56,2.96-5.82,3.91-2.25.94-4.7,1.4-7.36,1.4h-32.7c-2.68,0-5.16-.46-7.41-1.4s-4.19-2.22-5.82-3.91c-1.4-1.4-2.51-3.02-3.34-4.88s-1.25-3.02-1.25-3.45h-.06v-23.89h16.02v-.03h.01ZM567.56,294.58c0-1.11.2-2.17.63-3.14s1-1.82,1.71-2.54c.71-.74,1.54-1.31,2.48-1.71s1.91-.6,2.96-.6,2.05.2,2.99.6,1.8.97,2.51,1.71,1.31,1.57,1.71,2.54.6,2.02.6,3.14-.2,2.14-.6,3.08-.97,1.77-1.71,2.48-1.57,1.28-2.51,1.68-1.94.6-2.99.6-2.05-.2-2.96-.6-1.77-.97-2.48-1.68-1.28-1.54-1.71-2.48-.63-1.97-.63-3.08ZM584.75,294.58c0-1.11.23-2.17.66-3.14s1.03-1.82,1.74-2.54c.71-.74,1.54-1.31,2.48-1.71s2-.6,3.11-.6c1.03,0,2,.2,2.94.6s1.74.97,2.45,1.71c.68.74,1.25,1.57,1.65,2.54s.6,2.02.6,3.14-.2,2.14-.6,3.08-.97,1.77-1.65,2.48-1.51,1.28-2.45,1.68-1.91.6-2.94.6c-1.11,0-2.17-.2-3.11-.6s-1.77-.97-2.48-1.68-1.28-1.54-1.74-2.48-.66-1.97-.66-3.08Z"/>
    <path class="st0" d="M653.23,284.68v55.25h10.01s.29-.14.6-.46c.34-.37.63-.8.83-1.28.23-.48.34-1.05.34-1.65v-51.83h15.97v51.83c0,2.14-.43,4.13-1.25,6.02s-1.97,3.48-3.39,4.88c-1.65,1.65-3.62,2.96-5.84,3.91s-4.68,1.4-7.33,1.4h-33.61v-12.77h7.67v-55.25h15.97l.06-.03-.03-.02Z"/>
    <path class="st0" d="M734.54,358.12c-.68,2.37-1.6,4.48-2.74,6.33-1.14,1.85-2.51,3.42-4.05,4.76s-3.22,2.42-5.05,3.31-3.71,1.57-5.64,2.02c-1.94.48-3.91.83-5.9,1.05-2,.23-4.02.34-6.07.37s-4.93.06-8.67.06v-12.72h7.21c1.48,0,2.91-.09,4.28-.23s2.57-.31,3.65-.54,2.02-.51,2.82-.88c.68-.34,1.31-.8,1.91-1.34.6-.57,1.14-1.28,1.63-2.17.48-.88.88-2,1.23-3.31.31-1.31.51-2.02.54-2.08-1.48,0-3.56-.14-6.19-.46-2.62-.31-4.99-.74-7.1-1.31s-3.99-1.34-5.64-2.25c-1.65-.94-3.11-2.02-4.33-3.28-1.37-1.43-2.39-2.96-3.14-4.59-.74-1.63-1.25-3.34-1.57-5.16-.31-1.82-.51-3.76-.54-5.82v-6.1c.03-2.71.37-5.22,1.05-7.47s1.54-4.3,2.65-6.13c1.11-1.82,2.39-3.39,3.88-4.73s3.08-2.42,4.79-3.28c3.05-1.48,6.33-2.25,9.81-2.25h.46c3.59,0,6.98.8,10.18,2.39,1.63.86,3.19,1.91,4.65,3.22,1.48,1.31,2.74,2.82,3.79,4.59,1.05,1.74,1.88,3.71,2.48,5.84.6,2.17.91,4.48.91,6.98v23.49c-.17,5.42-.6,9.32-1.28,11.69v-.03.03ZM719.8,322.91c0-2.79-.46-4.99-1.34-6.59-.91-1.6-1.97-2.71-3.19-3.34-.6-.26-1.17-.43-1.68-.46-.4,0-.91.14-1.54.4-1.25.66-2.37,1.82-3.34,3.56s-1.48,4.19-1.54,7.38c-.03,1.23-.06,2.37-.06,3.42,0,.51,0,1.03.06,1.54,0,1.54.09,2.88.23,4.02.14,1.17.37,2.11.63,2.88.26.77.63,1.37,1.05,1.8.71.74,2.08,1.34,4.13,1.8,2.02.46,4.22.71,6.56.74v-17.13l.03-.03h0Z"/>
    <path class="st0" d="M761.96,284.68v51.83c0,.66.11,1.2.31,1.71s.48.88.83,1.2c.37.34.57.51.6.51h9.78v12.77h-9.72c-2.62,0-5.05-.46-7.33-1.4s-4.22-2.22-5.84-3.91c-1.4-1.4-2.51-3.02-3.34-4.88s-1.25-3.88-1.25-6.02v-51.83h15.97v.02Z"/>
    <path class="st0" d="M811.05,302.13c1.68.86,3.28,1.94,4.79,3.28,1.48,1.34,2.79,2.91,3.88,4.73,1.11,1.82,1.97,3.85,2.62,6.1s1,4.73,1.05,7.44c.03,2.02.06,3.96.06,5.76,0,1.91-.11,3.68-.34,5.36s-.6,2.99-1.08,3.93c-.17.34-.26.6-.26.77,0,.31.17.46.51.46.14,0,.29,0,.4-.06h8.1v12.77h-60.38v-12.77h8.3s.17.06.26.06c.23,0,.34-.14.34-.46,0-.17-.06-.43-.14-.77-.34-.94-.63-2.25-.86-3.93s-.34-3.45-.34-5.3c-.03-.34-.06-.74-.06-1.17,0-1.48.03-3.02.11-4.62.03-2.68.37-5.16,1.05-7.41s1.54-4.3,2.65-6.13c1.11-1.82,2.39-3.39,3.88-4.73s3.08-2.42,4.79-3.28c1.57-.74,3.22-1.31,4.99-1.68s3.54-.57,5.33-.57,3.56.17,5.33.54c1.77.34,3.45.91,5.05,1.71l-.03-.03h0ZM782.89,287.42c0-1.11.2-2.17.63-3.14s1-1.82,1.71-2.54c.71-.74,1.54-1.31,2.48-1.71s1.91-.6,2.96-.6,2.05.2,2.99.6,1.8.97,2.51,1.71c.74.74,1.28,1.57,1.71,2.54.4.97.6,2,.6,3.14s-.2,2.14-.6,3.08-.97,1.77-1.71,2.48c-.74.71-1.57,1.28-2.51,1.68s-1.94.6-2.99.6-2.05-.2-2.96-.6c-.94-.4-1.77-.97-2.48-1.68s-1.28-1.54-1.71-2.48-.63-1.97-.63-3.08ZM807.46,323.88c-.03-1.63-.2-3.05-.48-4.28-.29-1.23-.68-2.28-1.14-3.16-.48-.91-1-1.63-1.54-2.2s-1.17-1-1.8-1.34c-.14-.06-.37-.14-.71-.2s-.68-.11-1.03-.14h-.14c-.29,0-.57.03-.86.11-.31.06-.57.14-.83.26-.6.34-1.2.8-1.77,1.34s-1.08,1.28-1.54,2.2c-.48.88-.86,1.97-1.14,3.16-.29,1.23-.46,2.65-.48,4.28-.03,1.23-.06,2.37-.06,3.42,0,.51,0,1.03.06,1.54,0,1.54.09,2.88.23,4.02.14,1.17.37,2.11.63,2.88s.66,1.4,1.11,1.91c.34.37.63.68.88.94s.54.46.83.63c.31.17.68.31,1.14.43.46.11,1.08.17,1.85.17s1.45-.06,1.91-.17.83-.26,1.11-.43.57-.4.83-.66c.29-.29.57-.6.91-.97.48-.48.86-1.08,1.11-1.85s.48-1.74.63-2.91.26-2.48.29-3.93v-1.57c0-1.05,0-2.2-.06-3.42l.06-.06h0ZM800.08,287.42c0-1.11.23-2.17.66-3.14s1.03-1.82,1.74-2.54c.71-.74,1.54-1.31,2.48-1.71s2-.6,3.11-.6c1.03,0,2,.2,2.94.6s1.74.97,2.45,1.71,1.25,1.57,1.65,2.54.6,2,.6,3.14-.2,2.14-.6,3.08-.97,1.77-1.65,2.48-1.51,1.28-2.45,1.68-1.91.6-2.94.6c-1.11,0-2.17-.2-3.11-.6s-1.77-.97-2.48-1.68-1.28-1.54-1.74-2.48c-.43-.94-.66-1.97-.66-3.08Z"/>
    <path class="st0" d="M884.35,352.68h-10.98s-.4.31-1.03.71c-2.25,1.91-4.79,3.11-7.67,3.62-1.23.23-2.45.34-3.71.34-1.6,0-3.11-.17-4.59-.51h-.2l-15.71-4.16h-12.72v-12.77h5.99v-16.99c0-2.51.31-4.85.91-6.98s1.45-4.11,2.48-5.84,2.31-3.28,3.79-4.59,3.05-2.39,4.7-3.22c1.6-.77,3.25-1.37,4.93-1.77s3.45-.6,5.25-.6h.46c1.6,0,3.19.17,4.79.51,1.68.37,3.36.94,4.99,1.74,1.68.86,3.28,1.94,4.79,3.28,1.48,1.34,2.79,2.91,3.88,4.73,1.11,1.82,1.97,3.85,2.62,6.1s1,4.73,1.05,7.44v.11l.06,16.14h5.9v12.77-.06h.02ZM849.83,341.76l8.44,2.22c.86.31,1.57.46,2.14.46.06,0,.14,0,.26-.06.48-.03.83-.14,1.05-.34s.4-.54.57-1.05c.14-.51.23-1.11.23-1.82l-.06-17.31c-.03-1.63-.2-3.05-.48-4.28-.29-1.23-.66-2.28-1.14-3.16-.48-.91-1-1.63-1.54-2.2s-1.14-1-1.71-1.31c-.6-.26-1.11-.4-1.54-.4-.54.03-1.14.2-1.77.46-1.2.6-2.22,1.71-3.11,3.34s-1.31,3.79-1.31,6.59v18.82l-.03.06v-.02Z"/>
    <path class="st0" d="M908.36,284.57v51.94c0,.51,0,.83-.06.91.03.2.14.51.34.91s.46.77.77,1.11c.34.31.57.46.66.46h9.92v12.77h-9.86c-2.2,0-4.25-.31-6.16-.94s-3.11-1.11-3.65-1.51c-.48.37-1.68.88-3.59,1.51s-3.96.94-6.19.94h-9.27v-12.77h9.29s.31-.14.66-.46c.6-.66.97-1.43,1.08-2.34v-52.54h16.06Z"/>
    <path class="st0" d="M945.33,284.68v51.83c0,2.14-.43,4.13-1.25,6.02s-1.94,3.48-3.34,4.88c-1.63,1.65-3.56,2.96-5.82,3.91s-4.7,1.4-7.36,1.4h-10.63v-12.77h10.69s.29-.14.6-.46c.34-.34.6-.74.83-1.25s.31-1.05.31-1.71v-51.83h15.97v-.02Z"/>
    <path class="st0" d="M1025.99,330.24v1.31c0,.43-.06.8-.09,1.14-.03.94-.06,1.77-.06,2.48,0,1.65.09,2.65.26,2.99.23.51.51.94.86,1.28.2.17.4.29.57.34.11.06,1.45.11,4.02.11h3.71v12.77h-7.58c-2.51,0-4.82-.43-6.96-1.25s-3.45-1.48-3.96-1.97c-.23.2-1.11.68-2.65,1.43-3.16,1.6-6.53,2.39-10.12,2.39h-.46c-1.6,0-3.19-.17-4.79-.51-1.68-.37-3.36-.94-4.99-1.74-1.68-.86-3.28-1.94-4.79-3.28-1.48-1.34-2.79-2.91-3.91-4.73-1.11-1.82-2-3.85-2.65-6.1s-1-4.73-1.05-7.44c-.03-1.45-.06-2.85-.06-4.22v-1.94c.03-2.08.2-4.02.54-5.82.31-1.82.86-3.54,1.57-5.16s1.77-3.16,3.14-4.59c1.43-1.43,3.11-2.62,5.07-3.65,1.94-1,4.22-1.8,6.79-2.39,2.57-.6,5.53-1,8.84-1.2,1.91-.11,3.93-.14,6.1-.14,1.6,0,3.28.03,5.05.11l7.58.31v29.45h.03v.02ZM988.3,286.99c0-1.11.2-2.17.63-3.14s1-1.82,1.71-2.54c.71-.74,1.54-1.31,2.48-1.71s1.94-.6,2.96-.6,2.05.2,2.99.6,1.8.97,2.51,1.71,1.31,1.57,1.71,2.54.6,2.02.6,3.14-.2,2.14-.6,3.08c-.4.94-.97,1.77-1.71,2.48s-1.57,1.28-2.51,1.68-1.94.6-2.99.6-2.05-.2-2.96-.6-1.77-.97-2.48-1.68-1.28-1.54-1.71-2.48-.63-1.97-.63-3.08ZM1009.96,325.45v-12.34c-2.34.03-4.53.29-6.59.77-2.05.48-3.42,1.08-4.11,1.77-.43.46-.8,1.05-1.05,1.8-.29.77-.48,1.71-.63,2.88-.14,1.14-.23,2.48-.23,4.02-.03.51-.06,1.03-.06,1.54,0,1.05,0,2.2.06,3.42.03,1.63.2,3.05.48,4.28s.66,2.28,1.14,3.19c.48.91,1,1.63,1.54,2.2s1.14,1,1.71,1.31c.6.26,1.11.4,1.54.4.51-.03,1.08-.2,1.74-.46,1.03-.54,1.94-1.45,2.77-2.77s1.37-3.05,1.6-5.22v-6.73h.11l-.03-.06h.01ZM1005.49,286.99c0-1.11.23-2.17.66-3.14s1.03-1.82,1.74-2.54c.71-.74,1.54-1.31,2.48-1.71s2-.6,3.11-.6c1.03,0,2,.2,2.94.6s1.74.97,2.45,1.71c.68.74,1.25,1.57,1.65,2.54s.6,2.02.6,3.14-.2,2.14-.6,3.08c-.4.94-.97,1.77-1.65,2.48s-1.51,1.28-2.45,1.68-1.91.6-2.94.6c-1.11,0-2.17-.2-3.11-.6s-1.77-.97-2.48-1.68-1.28-1.54-1.74-2.48c-.43-.94-.66-1.97-.66-3.08Z"/>
    <path class="st0" d="M1029.15,366.36c0-1.11.2-2.17.63-3.14s1-1.82,1.71-2.54c.71-.74,1.54-1.31,2.48-1.71s1.94-.6,2.96-.6,2.05.2,2.99.6,1.8.97,2.51,1.71,1.31,1.57,1.71,2.54c.4.97.6,2.02.6,3.14s-.2,2.14-.6,3.08c-.4.94-.97,1.77-1.71,2.48s-1.57,1.28-2.51,1.68c-.94.4-1.94.6-2.99.6s-2.05-.2-2.96-.6c-.94-.4-1.77-.97-2.48-1.68s-1.28-1.54-1.71-2.48-.63-1.97-.63-3.08ZM1066.27,304.53v31.99c0,2.14-.43,4.13-1.25,6.02s-1.97,3.48-3.39,4.88c-1.65,1.65-3.59,2.96-5.82,3.91-2.22.94-4.68,1.4-7.36,1.4h-15.82v-12.77h15.88c.66-.17,1.11-.63,1.37-1.37.23-.66.34-1.4.34-2.25v-31.79h16.05v-.02ZM1046.34,366.36c0-1.11.23-2.17.66-3.14s1.03-1.82,1.74-2.54c.71-.74,1.54-1.31,2.48-1.71s2-.6,3.11-.6c1.03,0,2,.2,2.94.6s1.74.97,2.45,1.71c.68.74,1.25,1.57,1.65,2.54s.6,2.02.6,3.14-.2,2.14-.6,3.08c-.4.94-.97,1.77-1.65,2.48s-1.51,1.28-2.45,1.68-1.91.6-2.94.6c-1.11,0-2.17-.2-3.11-.6s-1.77-.97-2.48-1.68-1.28-1.54-1.74-2.48c-.43-.94-.66-1.97-.66-3.08Z"/>
    <path class="st0" d="M1101.16,304.53v35.41h8.1v12.77h-8.24c-.06,1.37-.43,3.22-1.11,5.56-.68,2.37-1.6,4.45-2.74,6.27s-2.51,3.39-4.05,4.7-3.22,2.39-5.05,3.28c-1.82.88-3.71,1.57-5.64,2.02-1.94.48-3.91.83-5.9,1.05s-4.02.34-6.04.37-4.9.06-8.64.06v-12.72h7.21c1.48,0,2.91-.09,4.22-.23,1.31-.14,2.54-.31,3.62-.54s2.02-.51,2.85-.88c.71-.34,1.37-.8,2-1.37.6-.57,1.14-1.31,1.63-2.25.48-.91.88-2.05,1.2-3.42.31-1.37.54-2.96.63-4.85v-45.27h16.02l-.06.03h0Z"/>
    <path class="st0" d="M1178.88,339.91h9.35v12.77h-82.05v-12.77h9.92v-35.49h15.97l-.06,12.14c1.48-4.68,3.71-8.27,6.64-10.75,2.94-2.48,6.61-4.22,11-5.16.71-.03,1.4-.06,2.08-.06,1.57,0,3.14.09,4.73.26,2.25.29,4.42.77,6.5,1.54,2.25.74,4.33,1.74,6.24,2.96,1.94,1.23,3.62,2.74,5.05,4.53,1.45,1.77,2.59,3.82,3.45,6.1s1.34,4.85,1.4,7.7v.97c0,.17,0,.4.06.66v11.18c0,1.2-.11,2.31-.34,3.42h.06ZM1132.1,339.91h29.45s.26-.14.6-.46c.34-.34.6-.74.83-1.25s.31-1.05.31-1.71v-12.54c-.06-1.43-.29-2.68-.6-3.79-.34-1.11-.8-2.05-1.37-2.85s-1.25-1.45-2.02-2c-.77-.51-1.63-.97-2.54-1.31-.86-.26-1.77-.46-2.74-.57-.68-.11-1.37-.14-2.02-.14-.34,0-.68,0-1.05.06-5.22.29-9.61,2.31-13.14,6.07-3.54,3.79-5.39,8.1-5.56,12.94v7.53l-.14.03h0Z"/>
    <path class="st0" d="M1241.8,352.68h-10.98s-.4.31-1.03.71c-2.25,1.91-4.79,3.11-7.67,3.62-1.23.23-2.45.34-3.71.34-1.6,0-3.11-.17-4.59-.51h-.2l-15.71-4.16h-12.72v-12.77h5.99v-16.99c0-2.51.31-4.85.91-6.98.6-2.14,1.45-4.11,2.48-5.84,1.03-1.74,2.31-3.28,3.79-4.59s3.05-2.39,4.7-3.22c1.6-.77,3.25-1.37,4.93-1.77s3.45-.6,5.25-.6h.46c1.6,0,3.19.17,4.79.51,1.68.37,3.36.94,4.99,1.74,1.68.86,3.28,1.94,4.79,3.28,1.48,1.34,2.79,2.91,3.88,4.73,1.11,1.82,1.97,3.85,2.62,6.1s1,4.73,1.05,7.44v.11l.06,16.14h5.9v12.77-.06h.02ZM1207.27,341.76l8.44,2.22c.86.31,1.57.46,2.14.46.06,0,.14,0,.26-.06.48-.03.83-.14,1.05-.34s.4-.54.57-1.05c.14-.51.23-1.11.23-1.82l-.06-17.31c-.03-1.63-.2-3.05-.48-4.28s-.66-2.28-1.14-3.16c-.48-.91-1-1.63-1.54-2.2s-1.14-1-1.71-1.31c-.6-.26-1.11-.4-1.54-.4-.54.03-1.14.2-1.77.46-1.2.6-2.22,1.71-3.11,3.34s-1.31,3.79-1.31,6.59v18.82l-.03.06v-.02Z"/>
    <path class="st0" d="M1267.14,284.68v51.83c0,2.14-.43,4.13-1.25,6.02s-1.94,3.48-3.34,4.88c-1.63,1.65-3.56,2.96-5.82,3.91s-4.7,1.4-7.36,1.4h-10.63v-12.77h10.69s.29-.14.6-.46c.34-.34.6-.74.83-1.25s.31-1.05.31-1.71v-51.83h15.97v-.02Z"/>
    <path class="st0" d="M1293.29,284.68v67.45h-15.97v-67.45h15.97Z"/>
  </g>
  <g class="st3">
    <text class="st1" transform="translate(551.08 458.22)"><tspan x="0" y="0">EL MASREYA CONTRACTING</tspan></text>
  </g>
</svg>