<?xml version="1.0" encoding="UTF-8"?>
<svg id="OBJECTS" xmlns="http://www.w3.org/2000/svg" version="1.1" viewBox="0 0 1287.02 487.98">
  <!-- Generator: Adobe Illustrator 30.5.0, SVG Export Plug-In . SVG Version: 2.1.4 Build 102)  -->
  <defs>
    <style>
      .st0 {
        fill: none;
        stroke: #ffc736;
        stroke-miterlimit: 10;
        stroke-width: .25px;
      }

      .st1 {
        fill: #fff;
      }

      .st2, .st3 {
        fill: #ffc736;
      }

      .st4, .st3 {
        isolation: isolate;
      }

      .st3 {
        font-family: BritannicBold, 'Britannic Bold';
        font-size: 54.32px;
      }
    </style>
  </defs>
  <g>
    <polygon class="st2" points="348.08 220.25 308.7 191.96 270.43 191.96 309.81 220.25 348.08 220.25"/>
    <polygon class="st2" points="372.27 265.09 410.54 265.09 371.11 236.78 332.84 236.78 372.27 265.09"/>
    <polygon class="st2" points="434.7 309.93 472.99 309.93 433.56 281.62 395.28 281.62 434.7 309.93"/>
    <polygon class="st2" points="495.98 326.44 457.71 326.44 497.12 354.75 535.41 354.75 495.98 326.44"/>
    <path class="st2" d="M123.08,277.11v-147.01l112.98-89.8v66.49h-7.34v16.1h8.55v9.26c-6.55,1.35-11.49,7.18-11.49,14.14,0,7.96,6.47,14.44,14.44,14.44s14.44-6.47,14.44-14.44h-5.88c0,4.71-3.84,8.55-8.55,8.55s-8.55-3.84-8.55-8.55,3.84-8.55,8.55-8.55h2.94v-14.85h8.55v-16.1h-7.34V33.69l17.08-13.57-.18-20.12L123.07,109.86v-30.52l-9.38,7.08v30.89l-7.79,6.2v-31.21l-22.69,17.12v32.13l-14.79,11.75v-32.72L0,172.23v83.25l68.44-54.41v-27.5l14.79-11.75v143.95l-68.28,49.04h46.33l180.38-129.52,180.38,129.52h46.33l-226.71-162.8-118.57,85.15v-.04h-.01,0ZM35.91,208.71l-22.56,17.93v-27.42l22.56-17.03v26.52h0ZM105.92,143.73l7.79-6.2v146.31l-7.79,5.59v-145.7Z"/>
    <rect class="st2" x="212.88" y="277.89" width="23.69" height="31.74"/>
    <rect class="st2" x="246.73" y="277.89" width="23.69" height="31.74"/>
    <rect class="st2" x="212.88" y="322.2" width="23.69" height="31.74"/>
    <rect class="st2" x="246.73" y="322.2" width="23.69" height="31.74"/>
    <polygon class="st2" points="24.63 255.44 68.43 255.44 68.43 220.62 24.63 255.44"/>
  </g>
  <g>
    <path class="st1" d="M26.57,366.06h41.25l25.36,41.6,25.36-41.6h41.25v118.36h-39.41v-58.67l-27.3,42.09h-.69l-27.3-42.09v58.67H26.55v-118.36h.02Z"/>
    <path class="st1" d="M170.8,445.54h39.23v38.9h-39.23v-38.9Z"/>
    <path class="st1" d="M279.69,486.97c-8.24,0-16.05-1.47-23.42-4.39-7.38-2.92-13.89-7.1-19.54-12.51-5.63-5.41-10.12-11.89-13.44-19.44-3.33-7.55-4.98-15.89-4.98-25.03v-.33c0-8.79,1.61-16.97,4.83-24.52s7.67-14.08,13.36-19.61,12.38-9.83,20.05-12.93c7.67-3.1,15.89-4.65,24.7-4.65,6.53,0,12.53.77,18.01,2.28,5.47,1.53,10.42,3.63,14.89,6.34,4.45,2.71,8.4,5.94,11.83,9.73s6.39,7.92,8.89,12.44l-32.64,19.1c-2.26-4.28-5.04-7.75-8.38-10.4-3.33-2.65-7.69-3.98-13.1-3.98-3.37,0-6.43.67-9.14,2.02s-5.02,3.22-6.92,5.57c-1.92,2.37-3.41,5.14-4.47,8.28-1.08,3.16-1.61,6.49-1.61,9.98v.33c0,3.82.53,7.36,1.61,10.57s2.59,5.98,4.57,8.28c1.96,2.31,4.32,4.12,7.02,5.41s5.69,1.94,8.96,1.94c5.63,0,10.14-1.37,13.53-4.14,3.37-2.77,6.32-6.34,8.79-10.73l32.64,18.44c-2.47,4.39-5.41,8.53-8.79,12.44-3.37,3.88-7.36,7.28-11.93,10.14-4.57,2.88-9.75,5.16-15.55,6.85s-12.38,2.53-19.69,2.53h-.08Z"/>
    <path class="st1" d="M340.73,445.54h39.23v38.9h-39.23v-38.9Z"/>
    <path class="st1" d="M454.69,486.97c-9.24,0-17.89-1.47-25.95-4.39s-15.1-7.1-21.14-12.51c-6.02-5.41-10.77-11.89-14.2-19.44-3.43-7.55-5.16-15.89-5.16-25.03v-.33c0-8.79,1.63-16.97,4.9-24.52s7.83-14.08,13.69-19.61c5.86-5.53,12.77-9.83,20.71-12.93s16.59-4.65,25.95-4.65c10.26,0,19.48,1.59,27.64,4.73,8.18,3.16,15.48,7.55,21.89,13.18l-22.15,26.72c-3.94-3.28-8.06-5.81-12.34-7.61s-8.91-2.71-13.87-2.71c-3.82,0-7.38.71-10.65,2.12-3.28,1.41-6.08,3.35-8.45,5.83s-4.2,5.41-5.49,8.79c-1.29,3.37-1.94,7.1-1.94,11.16v.33c0,4.18.71,8,2.12,11.49s3.35,6.47,5.83,8.96c2.47,2.47,5.43,4.39,8.89,5.75,3.43,1.35,7.24,2.04,11.42,2.04,3.37,0,6.08-.24,8.12-.67,2.02-.45,3.82-1.12,5.41-2.04v-11.83h-20.28v-25.19h57.31v54.67c-6.43,5.28-14.02,9.55-22.83,12.83-8.79,3.26-18.59,4.88-29.42,4.88v-.02h-.01,0Z"/>
  </g>
  <g>
    <path class="st1" d="M565,323.17v18.55c0,.57.1,1.04.27,1.49s.42.79.72,1.09c.3.27.5.4.57.4h28.51s.23-.12.52-.4c.3-.3.52-.64.72-1.09s.27-.91.27-1.49v-27.72h13.88v27.72c0,1.86-.37,3.59-1.09,5.23-.72,1.61-1.69,3.02-2.9,4.24-1.42,1.43-3.09,2.57-5.06,3.4-1.95.82-4.08,1.22-6.39,1.22h-28.41c-2.33,0-4.48-.4-6.44-1.22s-3.64-1.93-5.06-3.4c-1.22-1.22-2.18-2.62-2.9-4.24s-1.09-2.62-1.09-3h-.05v-20.76h13.92v-.03h.01ZM565.4,305.31c0-.96.17-1.89.55-2.73s.87-1.58,1.49-2.21c.62-.64,1.34-1.14,2.15-1.49s1.66-.52,2.57-.52,1.78.17,2.6.52,1.56.84,2.18,1.49,1.14,1.36,1.49,2.21.52,1.76.52,2.73-.17,1.86-.52,2.68-.84,1.54-1.49,2.15-1.36,1.11-2.18,1.46-1.69.52-2.6.52-1.78-.17-2.57-.52-1.54-.84-2.15-1.46-1.11-1.34-1.49-2.15-.55-1.71-.55-2.68ZM580.33,305.31c0-.96.2-1.89.57-2.73s.89-1.58,1.51-2.21c.62-.64,1.34-1.14,2.15-1.49s1.74-.52,2.7-.52c.89,0,1.74.17,2.55.52s1.51.84,2.13,1.49c.59.64,1.09,1.36,1.43,2.21s.52,1.76.52,2.73-.17,1.86-.52,2.68-.84,1.54-1.43,2.15-1.31,1.11-2.13,1.46-1.66.52-2.55.52c-.96,0-1.89-.17-2.7-.52s-1.54-.84-2.15-1.46-1.11-1.34-1.51-2.15-.57-1.71-.57-2.68Z"/>
    <path class="st1" d="M639.84,296.71v48.01h8.7s.25-.12.52-.4c.3-.32.55-.7.72-1.11.2-.42.3-.91.3-1.43v-45.03h13.88v45.03c0,1.86-.37,3.59-1.09,5.23s-1.71,3.02-2.95,4.24c-1.43,1.43-3.15,2.57-5.07,3.4s-4.07,1.22-6.37,1.22h-29.2v-11.1h6.66v-48.01h13.88l.05-.03-.03-.02h0Z"/>
    <path class="st1" d="M710.48,360.52c-.59,2.06-1.39,3.89-2.38,5.5s-2.18,2.97-3.52,4.14-2.8,2.1-4.39,2.88-3.22,1.36-4.9,1.76c-1.69.42-3.4.72-5.13.91-1.74.2-3.49.3-5.27.32s-4.28.05-7.53.05v-11.05h6.26c1.29,0,2.53-.08,3.72-.2s2.23-.27,3.17-.47,1.76-.44,2.45-.76c.59-.3,1.14-.7,1.66-1.16.52-.5.99-1.11,1.42-1.89.42-.76.76-1.74,1.07-2.88.27-1.14.44-1.76.47-1.81-1.29,0-3.09-.12-5.38-.4-2.28-.27-4.34-.64-6.17-1.14s-3.47-1.16-4.9-1.95c-1.43-.82-2.7-1.76-3.76-2.85-1.19-1.24-2.08-2.57-2.73-3.99-.64-1.42-1.09-2.9-1.36-4.48-.27-1.58-.44-3.27-.47-5.06v-5.3c.03-2.35.32-4.54.91-6.49s1.34-3.74,2.3-5.33c.96-1.58,2.08-2.95,3.37-4.11s2.68-2.1,4.16-2.85c2.65-1.29,5.5-1.95,8.52-1.95h.4c3.12,0,6.06.7,8.85,2.08,1.42.75,2.77,1.66,4.04,2.8,1.29,1.14,2.38,2.45,3.29,3.99.91,1.51,1.63,3.22,2.15,5.07.52,1.89.79,3.89.79,6.06v20.41c-.15,4.71-.52,8.1-1.11,10.16v-.03.03h0ZM697.68,329.93c0-2.42-.4-4.34-1.16-5.73-.79-1.39-1.71-2.35-2.77-2.9-.52-.23-1.02-.37-1.46-.4-.35,0-.79.12-1.34.35-1.09.57-2.06,1.58-2.9,3.09s-1.29,3.64-1.34,6.41c-.03,1.07-.05,2.06-.05,2.97,0,.44,0,.89.05,1.34,0,1.34.08,2.5.2,3.49.12,1.02.32,1.83.55,2.5s.55,1.19.91,1.56c.62.64,1.81,1.16,3.59,1.56,1.76.4,3.67.62,5.7.64v-14.88l.03-.03h0v.03Z"/>
    <path class="st1" d="M734.31,296.71v45.03c0,.57.1,1.04.27,1.49s.42.76.72,1.04c.32.3.5.44.52.44h8.5v11.1h-8.45c-2.28,0-4.39-.4-6.37-1.22s-3.67-1.93-5.07-3.4c-1.22-1.22-2.18-2.62-2.9-4.24s-1.09-3.37-1.09-5.23v-45.03h13.88v.02h0Z"/>
    <path class="st1" d="M776.96,311.87c1.46.75,2.85,1.69,4.16,2.85,1.29,1.16,2.42,2.53,3.37,4.11.96,1.58,1.71,3.35,2.28,5.3s.87,4.11.91,6.46c.03,1.76.05,3.44.05,5,0,1.66-.1,3.2-.3,4.66s-.52,2.6-.94,3.41c-.15.3-.23.52-.23.67,0,.27.15.4.44.4.12,0,.25,0,.35-.05h7.04v11.1h-52.46v-11.1h7.21s.15.05.23.05c.2,0,.3-.12.3-.4,0-.15-.05-.37-.12-.67-.3-.82-.55-1.95-.75-3.41s-.3-3-.3-4.61c-.03-.3-.05-.64-.05-1.02,0-1.29.03-2.62.1-4.01.03-2.33.32-4.48.91-6.44s1.34-3.74,2.3-5.33c.96-1.58,2.08-2.95,3.37-4.11s2.68-2.1,4.16-2.85c1.36-.64,2.8-1.14,4.34-1.46s3.08-.5,4.63-.5,3.09.15,4.63.47c1.54.3,3,.79,4.39,1.49l-.03-.03h0v.02ZM752.49,299.09c0-.96.17-1.89.55-2.73s.87-1.58,1.49-2.21c.62-.64,1.34-1.14,2.15-1.49s1.66-.52,2.57-.52,1.78.17,2.6.52,1.56.84,2.18,1.49c.64.64,1.11,1.36,1.49,2.21.35.84.52,1.74.52,2.73s-.17,1.86-.52,2.68-.84,1.54-1.49,2.15c-.64.62-1.36,1.11-2.18,1.46s-1.69.52-2.6.52-1.78-.17-2.57-.52c-.82-.35-1.54-.84-2.15-1.46s-1.11-1.34-1.49-2.15-.55-1.71-.55-2.68ZM773.84,330.77c-.03-1.42-.17-2.65-.42-3.72s-.59-1.98-.99-2.75c-.42-.79-.87-1.42-1.34-1.91s-1.02-.87-1.56-1.16c-.12-.05-.32-.12-.62-.17s-.59-.1-.89-.12h-.12c-.25,0-.5.03-.75.1-.27.05-.5.12-.72.23-.52.3-1.04.7-1.54,1.16s-.94,1.11-1.34,1.91c-.42.76-.75,1.71-.99,2.75-.25,1.07-.4,2.3-.42,3.72-.03,1.07-.05,2.06-.05,2.97,0,.44,0,.89.05,1.34,0,1.34.08,2.5.2,3.49.12,1.02.32,1.83.55,2.5s.57,1.22.96,1.66c.3.32.55.59.76.82s.47.4.72.55c.27.15.59.27.99.37.4.1.94.15,1.61.15s1.26-.05,1.66-.15.72-.23.96-.37.5-.35.72-.57c.25-.25.5-.52.79-.84.42-.42.75-.94.96-1.61s.42-1.51.55-2.53.23-2.15.25-3.41v-1.36c0-.91,0-1.91-.05-2.97l.05-.05h0l.02-.03ZM767.43,299.09c0-.96.2-1.89.57-2.73s.89-1.58,1.51-2.21c.62-.64,1.34-1.14,2.15-1.49s1.74-.52,2.7-.52c.89,0,1.74.17,2.55.52s1.51.84,2.13,1.49,1.09,1.36,1.43,2.21.52,1.74.52,2.73-.17,1.86-.52,2.68-.84,1.54-1.43,2.15-1.31,1.11-2.13,1.46-1.66.52-2.55.52c-.96,0-1.89-.17-2.7-.52s-1.54-.84-2.15-1.46-1.11-1.34-1.51-2.15c-.37-.82-.57-1.71-.57-2.68Z"/>
    <path class="st1" d="M840.65,355.79h-9.54s-.35.27-.89.62c-1.95,1.66-4.16,2.7-6.66,3.15-1.07.2-2.13.3-3.22.3-1.39,0-2.7-.15-3.99-.44h-.17l-13.65-3.61h-11.05v-11.1h5.2v-14.76c0-2.18.27-4.21.79-6.06s1.26-3.57,2.15-5.07,2.01-2.85,3.29-3.99,2.65-2.08,4.08-2.8c1.39-.67,2.82-1.19,4.28-1.54s3-.52,4.56-.52h.4c1.39,0,2.77.15,4.16.44,1.46.32,2.92.82,4.34,1.51,1.46.75,2.85,1.69,4.16,2.85,1.29,1.16,2.42,2.53,3.37,4.11.96,1.58,1.71,3.35,2.28,5.3s.87,4.11.91,6.46v.1l.05,14.02h5.13v11.1-.05h.02v-.02ZM810.66,346.31l7.33,1.93c.75.27,1.36.4,1.86.4.05,0,.12,0,.23-.05.42-.03.72-.12.91-.3s.35-.47.5-.91c.12-.44.2-.96.2-1.58l-.05-15.04c-.03-1.42-.17-2.65-.42-3.72s-.57-1.98-.99-2.75c-.42-.79-.87-1.42-1.34-1.91s-.99-.87-1.49-1.14c-.52-.23-.96-.35-1.34-.35-.47.03-.99.17-1.54.4-1.04.52-1.93,1.49-2.7,2.9s-1.14,3.29-1.14,5.73v16.35l-.03.05v-.02h.01Z"/>
    <path class="st1" d="M861.51,296.61v45.13c0,.44,0,.72-.05.79.03.17.12.44.3.79s.4.67.67.96c.3.27.5.4.57.4h8.62v11.1h-8.57c-1.91,0-3.69-.27-5.35-.82s-2.7-.96-3.17-1.31c-.42.32-1.46.76-3.12,1.31s-3.44.82-5.38.82h-8.05v-11.1h8.07s.27-.12.57-.4c.52-.57.84-1.24.94-2.03v-45.65h13.95,0Z"/>
    <path class="st1" d="M893.64,296.71v45.03c0,1.86-.37,3.59-1.09,5.23s-1.69,3.02-2.9,4.24c-1.42,1.43-3.09,2.57-5.06,3.4s-4.08,1.22-6.39,1.22h-9.24v-11.1h9.29s.25-.12.52-.4c.3-.3.52-.64.72-1.09s.27-.91.27-1.49v-45.03h13.88v-.02h0Z"/>
    <path class="st1" d="M963.72,336.3v1.14c0,.37-.05.7-.08.99-.03.82-.05,1.54-.05,2.15,0,1.43.08,2.3.23,2.6.2.44.44.82.75,1.11.17.15.35.25.5.3.1.05,1.26.1,3.49.1h3.22v11.1h-6.59c-2.18,0-4.19-.37-6.05-1.09s-3-1.29-3.44-1.71c-.2.17-.96.59-2.3,1.24-2.75,1.39-5.67,2.08-8.79,2.08h-.4c-1.39,0-2.77-.15-4.16-.44-1.46-.32-2.92-.82-4.34-1.51-1.46-.75-2.85-1.69-4.16-2.85-1.29-1.16-2.42-2.53-3.4-4.11-.96-1.58-1.74-3.35-2.3-5.3s-.87-4.11-.91-6.46c-.03-1.26-.05-2.48-.05-3.67v-1.69c.03-1.81.17-3.49.47-5.06.27-1.58.75-3.08,1.36-4.48s1.54-2.75,2.73-3.99c1.24-1.24,2.7-2.28,4.41-3.17,1.69-.87,3.67-1.56,5.9-2.08,2.23-.52,4.8-.87,7.68-1.04,1.66-.1,3.41-.12,5.3-.12,1.39,0,2.85.03,4.39.1l6.59.27v25.59h.03v.02h0l-.03-.02ZM930.97,298.72c0-.96.17-1.89.55-2.73s.87-1.58,1.49-2.21c.62-.64,1.34-1.14,2.15-1.49s1.69-.52,2.57-.52,1.78.17,2.6.52,1.56.84,2.18,1.49,1.14,1.36,1.49,2.21.52,1.76.52,2.73-.17,1.86-.52,2.68c-.35.82-.84,1.54-1.49,2.15s-1.36,1.11-2.18,1.46-1.69.52-2.6.52-1.78-.17-2.57-.52-1.54-.84-2.15-1.46-1.11-1.34-1.49-2.15-.55-1.71-.55-2.68ZM949.79,332.13v-10.72c-2.03.03-3.94.25-5.73.67-1.78.42-2.97.94-3.57,1.54-.37.4-.7.91-.91,1.56-.25.67-.42,1.49-.55,2.5-.12.99-.2,2.15-.2,3.49-.03.44-.05.89-.05,1.34,0,.91,0,1.91.05,2.97.03,1.42.17,2.65.42,3.72s.57,1.98.99,2.77c.42.79.87,1.42,1.34,1.91s.99.87,1.49,1.14c.52.23.96.35,1.34.35.44-.03.94-.17,1.51-.4.89-.47,1.69-1.26,2.41-2.41s1.19-2.65,1.39-4.54v-5.85h.1l-.03-.05h0ZM945.91,298.72c0-.96.2-1.89.57-2.73s.89-1.58,1.51-2.21c.62-.64,1.34-1.14,2.15-1.49s1.74-.52,2.7-.52c.89,0,1.74.17,2.55.52s1.51.84,2.13,1.49c.59.64,1.09,1.36,1.43,2.21s.52,1.76.52,2.73-.17,1.86-.52,2.68c-.35.82-.84,1.54-1.43,2.15s-1.31,1.11-2.13,1.46-1.66.52-2.55.52c-.96,0-1.89-.17-2.7-.52s-1.54-.84-2.15-1.46-1.11-1.34-1.51-2.15c-.37-.82-.57-1.71-.57-2.68Z"/>
    <path class="st1" d="M966.47,367.68c0-.96.17-1.89.55-2.73s.87-1.58,1.49-2.21c.62-.64,1.34-1.14,2.15-1.49s1.69-.52,2.57-.52,1.78.17,2.6.52,1.56.84,2.18,1.49,1.14,1.36,1.49,2.21c.35.84.52,1.76.52,2.73s-.17,1.86-.52,2.68c-.35.82-.84,1.54-1.49,2.15s-1.36,1.11-2.18,1.46-1.69.52-2.6.52-1.78-.17-2.57-.52c-.82-.35-1.54-.84-2.15-1.46s-1.11-1.34-1.49-2.15-.55-1.71-.55-2.68ZM998.72,313.96v27.8c0,1.86-.37,3.59-1.09,5.23s-1.71,3.02-2.95,4.24c-1.43,1.43-3.12,2.57-5.06,3.4-1.93.82-4.07,1.22-6.39,1.22h-13.75v-11.1h13.8c.57-.15.96-.55,1.19-1.19.2-.57.3-1.22.3-1.95v-27.62h13.95v-.02h0ZM981.4,367.68c0-.96.2-1.89.57-2.73s.89-1.58,1.51-2.21c.62-.64,1.34-1.14,2.15-1.49s1.74-.52,2.7-.52c.89,0,1.74.17,2.55.52s1.51.84,2.13,1.49c.59.64,1.09,1.36,1.43,2.21s.52,1.76.52,2.73-.17,1.86-.52,2.68c-.35.82-.84,1.54-1.43,2.15s-1.31,1.11-2.13,1.46-1.66.52-2.55.52c-.96,0-1.89-.17-2.7-.52s-1.54-.84-2.15-1.46-1.11-1.34-1.51-2.15c-.37-.82-.57-1.71-.57-2.68Z"/>
    <path class="st1" d="M1029.03,313.96v30.77h7.04v11.1h-7.16c-.05,1.19-.37,2.8-.96,4.83-.59,2.06-1.39,3.87-2.38,5.45s-2.18,2.95-3.52,4.08-2.8,2.08-4.39,2.85c-1.58.76-3.22,1.36-4.9,1.76-1.69.42-3.4.72-5.13.91s-3.49.3-5.25.32-4.26.05-7.51.05v-11.05h6.26c1.29,0,2.53-.08,3.67-.2,1.14-.12,2.21-.27,3.15-.47s1.76-.44,2.48-.76c.62-.3,1.19-.7,1.74-1.19.52-.5.99-1.14,1.42-1.95.42-.79.76-1.78,1.04-2.97.27-1.19.47-2.57.55-4.21v-39.33h13.92l-.05.03h0l-.02-.02Z"/>
    <path class="st1" d="M1096.56,344.7h8.12v11.1h-71.29v-11.1h8.62v-30.84h13.88l-.05,10.55c1.29-4.07,3.22-7.19,5.77-9.34s5.74-3.67,9.56-4.48c.62-.03,1.22-.05,1.81-.05,1.36,0,2.73.08,4.11.23,1.95.25,3.84.67,5.65,1.34,1.95.64,3.76,1.51,5.42,2.57,1.69,1.07,3.15,2.38,4.39,3.94,1.26,1.54,2.25,3.32,3,5.3s1.16,4.21,1.22,6.69v.84c0,.15,0,.35.05.57v9.71c0,1.04-.1,2.01-.3,2.97h.05-.01ZM1055.92,344.7h25.59s.23-.12.52-.4c.3-.3.52-.64.72-1.09s.27-.91.27-1.49v-10.9c-.05-1.24-.25-2.33-.52-3.29-.3-.96-.7-1.78-1.19-2.48s-1.09-1.26-1.76-1.74c-.67-.44-1.42-.84-2.21-1.14-.75-.23-1.54-.4-2.38-.5-.59-.1-1.19-.12-1.76-.12-.3,0-.59,0-.91.05-4.54.25-8.35,2.01-11.42,5.27-3.08,3.29-4.68,7.04-4.83,11.24v6.54l-.12.03h0v.02Z"/>
    <path class="st1" d="M1151.23,355.79h-9.54s-.35.27-.89.62c-1.95,1.66-4.16,2.7-6.66,3.15-1.07.2-2.13.3-3.22.3-1.39,0-2.7-.15-3.99-.44h-.17l-13.65-3.61h-11.05v-11.1h5.2v-14.76c0-2.18.27-4.21.79-6.06.52-1.86,1.26-3.57,2.15-5.07.89-1.51,2.01-2.85,3.29-3.99s2.65-2.08,4.08-2.8c1.39-.67,2.82-1.19,4.28-1.54s3-.52,4.56-.52h.4c1.39,0,2.77.15,4.16.44,1.46.32,2.92.82,4.34,1.51,1.46.75,2.85,1.69,4.16,2.85,1.29,1.16,2.42,2.53,3.37,4.11.96,1.58,1.71,3.35,2.28,5.3s.87,4.11.91,6.46v.1l.05,14.02h5.13v11.1-.05h.02v-.02ZM1121.23,346.31l7.33,1.93c.75.27,1.36.4,1.86.4.05,0,.12,0,.23-.05.42-.03.72-.12.91-.3s.35-.47.5-.91c.12-.44.2-.96.2-1.58l-.05-15.04c-.03-1.42-.17-2.65-.42-3.72s-.57-1.98-.99-2.75c-.42-.79-.87-1.42-1.34-1.91s-.99-.87-1.49-1.14c-.52-.23-.96-.35-1.34-.35-.47.03-.99.17-1.54.4-1.04.52-1.93,1.49-2.7,2.9s-1.14,3.29-1.14,5.73v16.35l-.03.05v-.02h.01Z"/>
    <path class="st1" d="M1173.25,296.71v45.03c0,1.86-.37,3.59-1.09,5.23s-1.69,3.02-2.9,4.24c-1.42,1.43-3.09,2.57-5.06,3.4s-4.08,1.22-6.39,1.22h-9.24v-11.1h9.29s.25-.12.52-.4c.3-.3.52-.64.72-1.09s.27-.91.27-1.49v-45.03h13.88v-.02h0Z"/>
    <path class="st1" d="M1195.97,296.71v58.61h-13.88v-58.61h13.88Z"/>
  </g>
  <g class="st4">
    <g class="st4">
      <g class="st4">
        <g class="st4">
          <text class="st3" transform="translate(551.08 447.5)"><tspan x="0" y="0">EL MASREYA CONTRACTING</tspan></text>
        </g>
      </g>
    </g>
  </g>
  <polyline class="st0" points="1285 487.85 1286.9 487.85 1286.9 486.13"/>
</svg>